<svg xmlns="http://www.w3.org/2000/svg" width="146" height="57" viewBox="0 0 146 57"><g fill-rule="evenodd" clip-rule="evenodd"><path fill="#FFF" d="M13.92 3.22c.177-.41.54-.996 1.315-1.736C16.71.076 19.082.41 19.082.41s2.39.19 3.54 1.88c1.15 1.704.95 2.522.958 2.516.35-.198 1.03-.453 2.282-.478 2.017-.04 3.562 1.828 3.562 1.828s1.655 1.77 1.4 3.815c-.255 2.053-.94 2.526-.94 2.526s.82-.12 2.352 1.234c1.525 1.346 1.453 3.792 1.453 3.792s.07 2.446-1.454 3.79c-.803.71-1.41 1.015-1.816 1.148.234.34.554.972.77 2.116.383 2.023-1.155 3.897-1.155 3.897s-1.427 1.967-3.443 2.06c-2.022.09-2.596-.518-2.596-.518s.25.803-.79 2.575c-1.038 1.768-3.41 2.11-3.41 2.11s-2.35.49-3.908-.816c-.977-.818-1.356-1.458-1.505-1.824 0-.004-.34.768-2.276 1.373-1.928.606-3.916-.758-3.916-.758s-2.068-1.24-2.373-3.276c-.133-.91-.105-1.544-.028-1.982-.403.028-1.103 0-2.182-.372C1.696 26.383.86 24.09.86 24.09s-.965-2.237-.045-4.073c.924-1.84 1.723-2.048 1.723-2.048s-.813-.175-1.804-1.977c-.985-1.798-.105-4.07-.105-4.07s.744-2.327 2.63-3.062c1.212-.475 1.946-.483 2.31-.43-.01-.002-.498-.684-.057-2.703.437-2.01 2.582-3.097 2.582-3.097s2.076-1.225 3.962-.487c1.005.394 1.556.8 1.863 1.076"/><path fill="#00539E" d="M7.083 26.13c-.998.392-2.124.395-3.22-.105-2.195-1-3.187-3.64-2.205-5.877.475-1.078 1.322-1.87 2.32-2.29-1.01-.353-1.876-1.085-2.4-2.185-1.052-2.203-.145-4.875 2.02-5.946 1.044-.514 2.195-.566 3.225-.237-.555-.93-.754-2.06-.46-3.244.585-2.376 2.968-3.828 5.303-3.23 1.124.288 2.038 1 2.617 1.926.163-1.075.723-2.07 1.696-2.788 1.95-1.436 4.69-.99 6.102.996.678.957.93 2.1.788 3.19.804-.717 1.863-1.113 3.06-1.024 2.4.174 4.22 2.312 4.045 4.755-.082 1.18-.612 2.22-1.41 2.96 1.07-.02 2.13.367 2.99 1.216 1.73 1.707 1.773 4.534.1 6.292-.808.847-1.87 1.296-2.947 1.344.83.68 1.4 1.674 1.522 2.89.247 2.436-1.505 4.63-3.898 4.88-1.153.124-2.252-.228-3.105-.9.205 1.07.014 2.202-.66 3.21-1.35 2.03-4.076 2.565-6.067 1.19-.96-.66-1.58-1.647-1.814-2.72-.516.95-1.378 1.69-2.53 2.025-2.316.673-4.742-.7-5.4-3.06-.32-1.13-.173-2.294.327-3.268"/><path fill="#FCB827" d="M31.628 16.777c.19.902.274 1.173-.02 2.097-.758 2.38-3.61 2.948-5.22 1.607-1.018-.85-1.94-1.975-3.014-1.926-.03.298-.08.59-.147.876.598.094 1.188.693 1.723 1.22.07.07.14.133.214.197-.29 0-.582.023-.88.075-.738.13-1.2.023-1.49-.233-.147.314-.314.62-.506.904.738 2.12.042 7.197 3.91 6.72 1.143-.14 1.916-.65 2.462-1.577-.418.816-.528 1.076-1.338 1.592-2.08 1.33-4.626-.105-5.01-2.184-.234-1.268-.24-2.68-1.006-3.373-.184.173-.378.34-.582.493.412.46.49 1.317.564 2.077.01.1.024.196.04.292-.22-.188-.463-.362-.722-.517-.653-.39-.94-.78-.996-1.17-.358.172-.73.314-1.117.417-.772 2.11-4.512 5.54-1.247 7.71.96.637 1.877.754 2.882.402-.84.35-1.085.48-2.03.345-2.435-.345-3.482-3.11-2.463-4.955.627-1.138 1.53-2.233 1.356-3.275h-.208c-.13 0-.255 0-.383-.008.022.62-.46 1.326-.882 1.96-.055.08-.104.164-.154.25-.048-.29-.124-.583-.226-.87-.253-.725-.227-1.213-.026-1.546-.416-.11-.817-.264-1.198-.45-1.857 1.155-7.052 1.282-5.904 5.136.333 1.12.96 1.807 1.953 2.196-.863-.28-1.134-.343-1.773-1.065-1.646-1.857-.7-4.66 1.242-5.407 1.24-.474 2.68-.728 3.16-1.72-.116-.1-.23-.2-.34-.305-.374.49-1.187.715-1.91.926-.093.023-.185.054-.273.088.144-.253.27-.527.373-.816.262-.717.585-1.072.95-1.2-.242-.342-.455-.71-.63-1.1-2.103-.174-6.336-3.745-7.93.052-.448 1.075-.402 2.015.11 2.962-.482-.783-.65-1.006-.686-1.977-.087-2.502 2.405-4.03 4.366-3.33 1.308.468 2.624 1.264 3.637.682-.024-.132-.042-.263-.058-.395-.592.116-1.345-.238-2.02-.547-.09-.04-.18-.077-.27-.11.27-.1.54-.225.804-.38.638-.37 1.103-.435 1.46-.307.028-.385.092-.763.183-1.127-1.565-1.34-2.513-7.167-6.22-5.254-1.024.528-1.58 1.278-1.784 2.34.123-.915.136-1.195.725-1.964 1.51-1.972 4.383-1.512 5.443.308.735 1.26 1.25 2.793 2.49 2.92.07-.128.146-.252.224-.375-.52-.305-.872-1.06-1.192-1.737-.04-.087-.087-.174-.136-.26.27.102.556.18.854.235.714.134 1.113.385 1.306.712.222-.228.46-.443.714-.638-.457-1.988 2.64-7.206-1.467-8.18-1.116-.266-2.016-.057-2.842.625.67-.62.86-.827 1.794-1.03 2.4-.523 4.312 1.71 3.974 3.798-.235 1.46-.818 2.99.087 3.896.182-.073.362-.136.546-.192-.2-.574.01-1.377.187-2.1.022-.094.044-.19.06-.287.144.255.314.502.506.74.458.565.605 1.013.554 1.39.197-.02.396-.03.598-.03.064 0 .132 0 .196.004.948-1.816 6.55-3.782 4.03-7.2-.688-.935-1.51-1.36-2.572-1.382.904-.036 1.18-.072 2.023.383 2.168 1.17 2.223 4.134.647 5.514-1.083.945-2.465 1.725-2.395 2.973.24.074.476.166.706.265.208-.57.875-1.052 1.47-1.487.077-.058.153-.118.224-.18-.05.29-.075.588-.077.894-.004.745-.177 1.186-.46 1.435.2.143.395.3.58.466 1.97-.653 7.298 1.347 7.52-2.837.063-1.168-.295-2.033-1.1-2.745.72.565.953.72 1.31 1.62.925 2.318-.905 4.623-2.982 4.647-1.375.016-2.868-.27-3.63.606.163.244.31.5.44.765.52-.31 1.344-.238 2.078-.185.1.008.195.008.29.008-.222.19-.432.403-.626.637-.477.572-.89.796-1.27.796.07.268.124.54.163.822 1.915.99 4.655 5.647 7.388 2.674.785-.853 1.057-1.75.893-2.82"/><path fill="#FFF" d="M16.783 12.436c2.984 0 5.417 2.43 5.417 5.414 0 2.98-2.433 5.41-5.417 5.41-2.983 0-5.417-2.43-5.417-5.41 0-2.983 2.434-5.414 5.417-5.414"/></g><g fill="#00539E"><path fill-rule="evenodd" clip-rule="evenodd" d="M136.112 25.788c2.72 0 4.082-2.382 4.082-7.13 0-2.156-.324-3.85-.974-5.083-.655-1.243-1.656-1.868-3.002-1.868-1.396 0-2.43.646-3.104 1.92-.674 1.286-1.012 2.99-1.012 5.112 0 2.283.358 4.03 1.07 5.235.72 1.207 1.698 1.813 2.94 1.813m-.14 3.908c-2.65 0-4.678-1.12-6.068-3.352-1.396-2.238-2.095-4.79-2.095-7.667 0-3.11.77-5.69 2.312-7.757 1.546-2.066 3.585-3.098 6.116-3.098 2.398 0 4.376 1 5.918 3.013 1.537 2.004 2.312 4.625 2.312 7.842 0 3.31-.797 5.97-2.4 7.986-1.607 2.018-3.636 3.033-6.097 3.033zM48.686 25.968c-1.032 0-1.885-.318-2.575-.958-.684-.64-1.144-1.385-1.374-2.242-.23-.858-.343-2.002-.343-3.428v-3.06c.132-1.635.566-2.9 1.31-3.792.748-.893 1.678-1.34 2.792-1.34 1.122 0 2.062.477 2.825 1.43.664.837 1.026 1.89 1.124 3.142l3.906-.563c-.336-1.622-.91-3.044-1.734-4.256-1.396-2.05-3.375-3.077-5.93-3.077-2.608 0-4.68 1.035-6.207 3.117-1.526 2.08-2.293 4.703-2.293 7.875 0 3.343.757 5.992 2.273 7.94 1.516 1.96 3.513 2.94 5.996 2.94 2.073 0 3.793-.62 5.17-1.853 1.366-1.234 2.292-2.802 2.765-4.694l-3.658-.585c-.7 2.277-2.047 3.405-4.046 3.405z"/><path d="M98.41 19.975v-2.932h6.46c-.19-3.878-1.404-5.82-3.643-5.82-1.638 0-2.63 1.118-3 3.37l-4.012-.75c.87-4.017 3.192-6.02 6.967-6.02 2.676 0 4.69.957 6.04 2.863 1.353 1.912 2.024 4.59 2.024 8.054 0 7.308-2.604 10.957-7.82 10.957-4.105 0-6.522-2.105-7.25-6.314l3.988-.82c.257 2.388 1.268 3.578 3.018 3.578 2.41 0 3.66-2.053 3.73-6.165h-6.5zM77.79 29.322V8.195h4.077v8.388h5.88V8.195h4.076v21.127h-4.076v-9.46h-5.88v9.46M63.885 27.164v2.158h-4.08V8.195h4.08v9.155c0 2.255-.05 3.705-.14 4.38.57-1.324 1.263-2.677 2.066-4.062l3.994-6.735V8.195h4.075v21.127h-4.076v-8.644c0-2.325.047-3.783.142-4.364-.56 1.498-1.32 3.042-2.283 4.637l-3.778 6.214zM122.583 18.264c2.328-1.014 3.49-2.674 3.49-4.986 0-1.372-.358-2.595-1.083-3.673-.72-1.08-2.07-1.623-4.044-1.623h-8.866V29.53h9.65c1.57 0 2.788-.55 3.634-1.633.863-1.09 1.292-2.497 1.292-4.24 0-2.728-1.354-4.525-4.073-5.393zm-6.424-7.27h3.656c.855 0 1.487.234 1.88.724.398.483.598 1.296.598 2.456 0 2.017-.833 3.023-2.478 3.023h-3.657v-6.203zm3.926 15.165h-3.927v-6.616h3.926c1.716 0 2.572 1.107 2.572 3.33 0 2.188-.856 3.285-2.572 3.285z"/></g><g fill="#FCB827"><path d="M12.18 51.13l1.815.405c-.87 3.5-2.83 5.25-5.885 5.25-2.008 0-3.584-.81-4.728-2.43-1.144-1.618-1.715-3.61-1.715-5.975 0-2.44.597-4.4 1.79-5.882 1.195-1.48 2.796-2.22 4.804-2.22 2.98 0 4.89 1.7 5.735 5.1l-1.873.37c-.683-2.523-1.974-3.786-3.873-3.786-1.404 0-2.492.587-3.263 1.76-.77 1.174-1.157 2.82-1.157 4.943 0 1.944.396 3.503 1.186 4.676.79 1.174 1.838 1.76 3.14 1.76 2.024.002 3.365-1.323 4.025-3.97zM16.46 56.46V40.605h11.014V56.46h-1.99V42.347H18.45V56.46h-1.99zM33.44 56.46h-1.988V40.605h5.63c1.76 0 3.058.478 3.895 1.435.837.955 1.256 2.045 1.256 3.27 0 1.362-.456 2.49-1.367 3.38s-2.103 1.336-3.576 1.336h-3.85v6.435zm0-8.084h3.653c.938 0 1.694-.28 2.268-.843s.86-1.303.86-2.225c0-.79-.255-1.494-.767-2.114-.512-.62-1.252-.93-2.22-.93H33.44v6.112zM54.46 56.46h-2.03l-1.61-4.634h-5.878l-1.42 4.635H41.86l5.158-15.855h2.25L54.46 56.46zm-4.063-6.12l-2.447-7.62-2.456 7.62h4.903zM56.527 56.46V40.605h6.28c1.582 0 2.754.387 3.518 1.16.764.774 1.146 1.672 1.146 2.693 0 1.795-.937 2.987-2.814 3.575 1.117.286 1.946.798 2.49 1.534.54.736.813 1.57.813 2.5 0 1.247-.422 2.29-1.263 3.132-.842.842-2.138 1.262-3.89 1.262h-6.28zm1.92-9.06H61.9c1.435 0 2.392-.273 2.873-.82.48-.545.72-1.186.72-1.922 0-.728-.257-1.316-.772-1.766s-1.284-.674-2.308-.674h-3.966v5.18zm0 7.32h4.256c1.04 0 1.84-.253 2.407-.757.566-.503.85-1.157.85-1.963 0-.565-.13-1.09-.385-1.574-.256-.483-.616-.857-1.082-1.12-.465-.264-1.16-.396-2.082-.396h-3.965v5.81zM76.403 56.786c-2.04 0-3.63-.792-4.77-2.377s-1.708-3.53-1.708-5.83c0-2.403.597-4.388 1.79-5.953 1.195-1.565 2.777-2.35 4.746-2.35 1.963 0 3.537.77 4.724 2.31 1.186 1.538 1.78 3.478 1.78 5.817 0 2.248-.577 4.207-1.73 5.877s-2.76 2.506-4.83 2.506zm.046-1.614c1.388 0 2.473-.632 3.256-1.896s1.175-2.892 1.175-4.884c0-2.046-.404-3.64-1.215-4.778-.81-1.14-1.886-1.71-3.227-1.71-1.357 0-2.435.617-3.233 1.85s-1.198 2.845-1.198 4.837c0 1.946.403 3.53 1.21 4.75.806 1.222 1.884 1.832 3.232 1.832zM93.93 56.46v-7.504c-1.116 1.402-2.543 2.104-4.28 2.104-1.488 0-2.642-.434-3.46-1.302-.817-.867-1.227-2.168-1.227-3.903v-5.25h1.99v5.413c0 1.255.262 2.136.79 2.643.526.51 1.27.762 2.232.762 1.675 0 2.993-.643 3.954-1.928v-6.89h1.988v15.857H93.93zM111.235 56.46h-1.988v-7.55h-7.362v7.55h-1.988V40.605h1.988v6.563h7.362v-6.563h1.988V56.46zM117.19 55.137v1.324h-1.988V40.605h1.988v10.233c0 .673-.027 1.36-.08 2.064.546-.98 1.196-1.988 1.948-3.02l5.703-7.732v-1.545h1.99V56.46h-1.99v-9.225c0-.573.028-1.524.082-2.854-.444.854-1.096 1.862-1.953 3.026l-5.7 7.73zM143.266 56.46h-2.178l-4.748-8.758-3.635 4.53v4.23h-1.988V40.603h1.988v9.194l7.184-9.194h2.145l-4.304 5.55 5.536 10.307z"/></g></svg>