<svg width="129" height="114" viewBox="0 0 129 114" xmlns="http://www.w3.org/2000/svg" xmlns:xlink="http://www.w3.org/1999/xlink"><svg width="23" height="13" viewBox="0 0 23 13" id="arrows-to-top" x="31" y="59"><path fill="#FFF" d="M19.567.014l-3.43 3.57h2.118l.89 9.43h.91l.93-9.43H23M11.5.014l-3.432 3.57h2.12l.89 9.43h.91l.93-9.43h2.014M3.432.014L0 3.584h2.12l.89 9.43h.91l.93-9.43h2.014"/></svg><svg width="16" height="15" viewBox="0 0 16 15" id="beadcrumbs-home" x="21" y="75"><path d="M1.943 8.428v6.68h4.503V12.33h3.002v2.78h4.47V8.427M13 4.68V1.53h-1.994v1.28L8.01.006l-8 7.492h16" fill="#0053A0"/></svg><svg width="36" height="36" viewBox="0 0 36 36" id="cart-header" x="93"><linearGradient id="ca" gradientUnits="userSpaceOnUse" x1="1266" y1="932.999" x2="1266" y2="969" gradientTransform="translate(-1248 -933)"><stop offset="0" stop-color="#FEC449"/><stop offset="1" stop-color="#D89628"/></linearGradient><path fill="url(#ca)" d="M36 32.172C36 34.285 34.286 36 32.172 36H3.827C1.713 36 0 34.285 0 32.172V3.828C0 1.713 1.713 0 3.827 0h28.345C34.286 0 36 1.713 36 3.828v28.344z"/><path fill="#FFF" d="M31.876 14.245H28.14l-2.804-7.21c-.08-.493-.51-.87-1.025-.87h-1.325c-.24-.418-.69-.7-1.21-.7h-7.642c-.517 0-.968.28-1.21.7h-1.33c-.516 0-.94.377-1.02.87l-2.812 7.21H4.03c-.833 0-1.515.68-1.515 1.512v.19L7 27.467c.114.722.74 1.274 1.493 1.274h18.914c.753 0 1.378-.552 1.493-1.274l4.48-11.52v-.19c.008-.835-.67-1.512-1.504-1.512zm-6.762 8.693h-2.71l.306-2.814h2.928l-.524 2.814zm1.632-2.815h2.85L28.5 22.94h-2.28l.525-2.818zm-20.435 0h2.856l.52 2.816H7.412l-1.1-2.818zm3.958 0H13.2l.31 2.816h-2.714l-.53-2.818zm7.142-3.858v2.77h-3.24l-.304-2.77h3.543zm0 3.858v2.816h-2.813l-.31-2.818h3.122zm1.087 0h3.12l-.312 2.816h-2.81l.002-2.818zm0-1.088v-2.77h3.542l-.305 2.77h-3.24zm-5.725-2.77l.304 2.77h-3.012l-.52-2.77h3.228zm.852 7.762l.296 2.695h-2.425l-.5-2.695h2.63zm1.094 0h2.69v2.695h-2.395l-.295-2.695zm3.78 0h2.69l-.3 2.695h-2.396l.005-2.695zm3.784 0h2.63l-.5 2.695h-2.426l.296-2.695zm.547-4.992l.302-2.77h3.228l-.52 2.77h-3.01zM11.863 7.562h1.058c.242.417.692.7 1.21.7h7.642c.518 0 .97-.282 1.21-.7h1.06l2.6 6.683H9.266l2.6-6.683zm-3.422 8.703l.515 2.77h-3.07l-1.08-2.77h3.635zm-.612 7.762h2.057l.5 2.695H8.88l-1.05-2.695zm19.194 2.696h-1.512l.503-2.695h2.06l-1.05 2.695zm2.993-7.688h-3.065l.516-2.77H31.1l-1.083 2.77z"/></svg><svg id="cart-header-big" viewBox="0 0 44 44" width="44" height="44" y="15"><style>.st0{fill:url(#dXMLID_24_)}.st1{fill:#fff}</style><linearGradient id="dXMLID_24_" gradientUnits="userSpaceOnUse" x1="22" x2="22" y2="44"><stop offset="0" stop-color="#FEC449"/><stop offset="1" stop-color="#D89628"/></linearGradient><path id="dXMLID_21_" class="st0" d="M44 39.3c0 2.6-2.1 4.7-4.7 4.7H4.7C2.1 44 0 41.9 0 39.3V4.7C0 2.1 2.1 0 4.7 0h34.6C41.9 0 44 2.1 44 4.7v34.6z"/><path id="dXMLID_23_" class="st1" d="M39 17.4h-4.6L31 8.6c-.1-.6-.6-1.1-1.3-1.1h-1.6c-.3-.5-.8-.9-1.5-.9h-9.3c-.6 0-1.2.3-1.5.9h-1.6c-.6 0-1.2.5-1.3 1.1l-3.4 8.8H4.9c-1 0-1.8.8-1.8 1.8v.2l5.5 14.1c.1.9.9 1.6 1.8 1.6h23.1c.9 0 1.7-.7 1.8-1.6l5.5-14.1v-.2c0-1-.8-1.8-1.8-1.8zM30.7 28h-3.3l.4-3.4h3.6l-.7 3.4zm2-3.4h3.5L34.8 28H32l.7-3.4zm-25 0h3.5l.6 3.4H9.1l-1.4-3.4zm4.8 0h3.6l.4 3.4h-3.3l-.7-3.4zm8.8-4.7v3.4h-4l-.4-3.4h4.4zm0 4.7V28h-3.4l-.4-3.4h3.8zm1.3 0h3.8L26 28h-3.4v-3.4zm0-1.3v-3.4h4.3l-.4 3.4h-3.9zm-7-3.4l.4 3.4h-3.7l-.6-3.4h3.9zm1.1 9.5l.4 3.3h-3l-.6-3.3h3.2zm1.3 0h3.3v3.3h-2.9l-.4-3.3zm4.6 0h3.3l-.4 3.3h-2.9v-3.3zm4.6 0h3.2l-.6 3.3h-3l.4-3.3zm.7-6.1l.4-3.4h3.9l-.6 3.4h-3.7zM14.5 9.2h1.3c.3.5.8.9 1.5.9h9.3c.6 0 1.2-.3 1.5-.9h1.3l3.2 8.2H11.3l3.2-8.2zm-4.2 10.7l.6 3.4H7.2l-1.3-3.4h4.4zm-.7 9.5h2.5l.6 3.3h-1.8l-1.3-3.3zM33 32.7h-1.8l.6-3.3h2.5L33 32.7zm3.7-9.4h-3.8l.6-3.4H38l-1.3 3.4z"/></svg><svg width="32" height="17" viewBox="0 0 32 17" id="collaps-arrow" x="54" y="39"><path fill="#2069AC" d="M16.028 16.35L.638 0H.03l16 17 16-17h-.612"/></svg><svg width="31" height="16" viewBox="0 0 31 16" id="collaps-arrow-gray" y="59"><path fill="#D2D2D2" d="M15.5 15.39L.593 0H0l15.5 16L31 0h-.592"/></svg><svg width="15" height="15" viewBox="0 0 15 15" id="dollar" x="32" y="94"><circle fill="#E6E6E6" cx="7.5" cy="7.5" r="7.5"/><circle fill="#FFF" cx="7.5" cy="7.5" r="6.895"/><linearGradient id="ga" gradientUnits="userSpaceOnUse" x1="7.469" y1="13.754" x2="7.469" y2="1.256"><stop offset="0" stop-color="#646464"/><stop offset="1" stop-color="#969696"/></linearGradient><circle fill="url(#ga)" cx="7.469" cy="7.505" r="6.25"/><path fill="#646464" d="M7.468 1.755c3.17 0 5.75 2.58 5.75 5.75s-2.58 5.75-5.75 5.75-5.75-2.58-5.75-5.75 2.58-5.75 5.75-5.75m0-.5c-3.452 0-6.25 2.798-6.25 6.25s2.798 6.25 6.25 6.25 6.25-2.798 6.25-6.25-2.798-6.25-6.25-6.25z"/><path fill="#FFF" d="M6.447 11.87v-.796c-.574-.133-2.11-.63-2.483-2.178l-.075-.308H6.61l.04.21c.008.054.113.552.648.552.72 0 .72-.316.72-.45 0-.306-.47-.485-1.235-.75-.3-.103-.64-.22-.985-.367-.184-.055-1.625-.526-1.625-1.82 0-1.18 1.284-1.996 2.27-2.12V3.13h2v.767c.555.06 1.866.35 2.45 1.696l.152.35h-2.78L8.23 5.73c-.007-.046-.1-.475-.71-.475-.435 0-.527.22-.527.406 0 .197 0 .465 1.478.865 1.647.444 2.445 1.178 2.445 2.24 0 .864-.434 1.952-2.467 2.327v.767l-.25.01h-1.75z"/><path fill="#646464" d="M8.197 3.38v.75H8.2c.087 0 1.796.02 2.466 1.562H8.478s-.105-.687-.96-.687c-.697 0-.775.484-.775.656 0 .304.005.66 1.663 1.106 1.656.448 2.26 1.146 2.26 2 0 .97-.615 1.834-2.47 2.113v.74h-1.5v-.75s-2.072-.304-2.49-2.03h2.2s.123.76.895.76c.7 0 .97-.284.97-.7 0-.69-1.134-.82-2.384-1.352 0 0-1.46-.406-1.46-1.583 0-1.083 1.356-1.885 2.272-1.885v-.7h1.5m.5-.5h-2.5v.754c-1.045.225-2.27 1.1-2.27 2.33 0 1.437 1.525 1.972 1.788 2.053.297.125.586.23.85.32H3.573l.148.617c.368 1.525 1.76 2.11 2.477 2.312v.852h2.5v-.822c2.135-.47 2.47-1.768 2.47-2.53 0-1.177-.886-2.01-2.632-2.484-.114-.03-.218-.06-.313-.09h3.208l-.303-.698c-.52-1.2-1.617-1.683-2.428-1.82V2.88zM8.04 6.135c-.7-.23-.79-.385-.795-.392-.002-.01-.002-.055-.002-.082 0-.06 0-.154.276-.154.42 0 .46.25.463.263l.055.366zM7.3 9.098c-.336 0-.395-.305-.4-.34l-.055-.322c.398.138.925.335.925.462 0 .077 0 .2-.47.2z"/></svg><svg width="36" height="15" viewBox="0 0 36 15" id="easy-pay" x="93" y="36"><path d="M24.793 5.002c-1.74-1.157-3.428-1.5-5.507-1.5-1.987 0-4.03.454-5.637 1.507-.163.104 2.35.05 2.35.05.82-.03 1.53.223 1.923.816.616.932-.074 2.967-1.035 4.976-.488 1.13-.944 1.787-1.3 2.653 1.327-.82 3.024-5.004 5.003-4.775.29.034.73.515.98.656.104-.218-.733-2.34.234-3.48.654-.77 1.794-.275 2.987-.904z"/><ellipse cx="19.063" cy="1.445" rx="1.363" ry="1.218"/><path d="M2.254 11.26c-1.417.1-1.39-1.53-1.39-1.53s.756.334 2.053-.01c.726-.19 1.19-.763 1.25-1.826.037-.656-.512-1.635-1.69-1.587-1.175.047-2.425.845-2.47 3.06-.042 1.847.9 2.728 1.856 2.76.85.028 1.482-.247 1.885-.703.09-.103-.3-.59-.346-.676-.047-.086-.508.47-1.148.513zm.26-4.004c.016-.003.03-.004.047-.004.244 0 .44.08.59.237.135.14.175.292.173.34-.023.406-.147.916-.61 1.04-.35.09-.68.136-.987.136-.294 0-.475-.045-.52-.058l-.27-.116c.24-1.363 1.158-1.563 1.58-1.578zm5.63-.882c-.058.028-.058.218-.142.522-.06.22-.055-.552-1.37-.552-1.458 0-2.38 1.426-2.335 3.538.048 2.112 1.102 2.302 1.783 2.312.682.01 1.187-.476 1.327-.542.14-.066.074.19.093.296.018.104.766.082.773-.067.038-.617.064-1.737.188-2.747.16-1.304.376-2.382.4-2.68.01-.108-.66-.108-.715-.078zm-.496 2.66c-.064.53-.073.734-.11 1.276-.075.21-.99 1.04-1.404 1.04H6.13c-.335-.005-.962-.015-.995-1.48-.02-.97.22-1.788.662-2.247.233-.243.51-.367.825-.367.297 0 .434.048.48.065.398.13.612.31.72.46-.058.373-.117.797-.174 1.254zm14.812 5.95c.056-.03.4-2.97.452-3.343.03-.225.056.554 1.372.554 1.455 0 2.38-1.428 2.333-3.538-.046-2.11-1.1-2.3-1.783-2.31-.68-.01-1.184.474-1.325.54-.14.066-.076-.19-.096-.293-.018-.104-.766-.083-.772.066-.04.617-.182 2.574-.304 3.583-.16 1.304-.572 4.364-.6 4.665-.008.105.664.105.72.077zm.76-5.485c.063-.533.073-.713.16-1.273.073-.21.987-1.038 1.402-1.038h.003c.336.002.962.01.995 1.48.02.967-.22 1.787-.662 2.247-.233.242-.51.366-.824.366-.3 0-.437-.048-.48-.068-.398-.125-.61-.305-.72-.456.063-.413.07-.806.125-1.26zm7.48-3.146c-.055.03-.066.134-.15.438-.06.222.01-.485-1.305-.485-1.457 0-2.465 1.474-2.42 3.586.05 2.11 1.233 2.396 1.915 2.406.682.01 1.148-.583 1.288-.65.14-.065.01.39.027.495.02.104.905.072.915-.075.037-.617.1-1.91.225-2.92.157-1.304.364-2.363.39-2.662.012-.105-.828-.163-.884-.134zm-.43 2.68c-.064.53-.075.733-.112 1.275-.074.21-.987 1.04-1.402 1.04h-.003c-.336-.007-.962-.017-.995-1.48-.02-.97.22-1.79.66-2.25.235-.242.512-.366.827-.366.298 0 .434.048.48.065.395.126.61.307.718.46-.055.37-.118.795-.172 1.252zM10.672 12.2c-.787 0-1.467-.38-1.733-.595-.136-.106-.026-.248-.026-.248l.34-.426s.112-.13.268-.027c.23.155.7.403 1.21.386.33-.016.62-.13.773-.308.092-.103.128-.225.118-.367-.026-.338-.517-.685-.99-1.02-.647-.455-1.38-.972-1.35-1.797.032-1.015 1.02-1.543 1.978-1.543.536 0 1.01.18 1.43.523.125.1.03.234.03.234l-.4.432s-.13.083-.227.015c-.26-.18-.515-.29-.832-.29-.41 0-1.065.177-1.082.66-.012.325.484.676.963 1.017.616.434 1.316.928 1.375 1.697.03.395-.087.756-.34 1.047-.32.365-.83.588-1.408.61h-.098z"/><path d="M16.737 6.573l-.55-.193s-.14-.032-.196.123c-.21.575-.915 2.516-1.823 4.18-.02.038-.043.075-.062.11-.02-.585-.07-1.227-.177-1.797-.15-.815-.48-1.925-.692-2.572-.053-.162-.23-.114-.23-.114l-.525.194s-.137.078-.086.234c.2.61.517 1.67.653 2.424.19 1.048.192 2.38.14 2.994-.727.93-1.457 1.583-1.752 1.826-.136.112-.04.237-.04.237l.34.455s.09.16.25.026c.468-.386 1.942-1.702 2.963-3.575.963-1.765 1.69-3.768 1.893-4.34.06-.152-.102-.213-.102-.213zm19.15.077l-.547-.194s-.142-.03-.198.124c-.213.576-.917 2.516-1.824 4.18-.02.038-.043.074-.063.11-.018-.584-.07-1.226-.175-1.798-.15-.814-.48-1.924-.693-2.572-.053-.162-.23-.114-.23-.114l-.524.196s-.138.076-.085.234c.2.608.515 1.668.652 2.423.19 1.044.192 2.377.14 2.992-.727.928-1.456 1.582-1.753 1.825-.137.112-.04.237-.04.237l.34.456s.09.162.252.028c.466-.388 1.94-1.704 2.962-3.576.963-1.766 1.69-3.767 1.893-4.34.052-.152-.11-.213-.11-.213z"/><linearGradient id="ha" gradientUnits="userSpaceOnUse" x1="2.086" y1="6.113" x2="2.086" y2="11.94"><stop offset="0" stop-color="#82828A"/><stop offset=".497" stop-color="#3B3C3F"/><stop offset=".529" stop-color="#0C0C0C"/><stop offset=".614" stop-color="#3D3E3F"/><stop offset="1" stop-color="#56585A"/></linearGradient><path fill="url(#ha)" d="M2.254 11.07C.837 11.168.864 9.54.864 9.54s.756.332 2.053-.01c.726-.192 1.19-.763 1.25-1.826.037-.657-.512-1.637-1.69-1.59-1.175.05-2.425.848-2.47 3.064-.042 1.846.9 2.726 1.856 2.76.85.028 1.482-.248 1.885-.704.09-.102-.3-.59-.346-.676-.047-.086-.508.47-1.148.513zm.26-4.006c.016-.002.03-.002.047-.002.244 0 .44.08.59.237.134.14.175.29.173.34-.023.405-.147.915-.61 1.037-.35.092-.68.138-.987.138-.294 0-.475-.045-.52-.057l-.27-.118c.24-1.363 1.158-1.56 1.58-1.578z"/><linearGradient id="hb" gradientUnits="userSpaceOnUse" x1="6.579" y1="6.154" x2="6.579" y2="12.004"><stop offset="0" stop-color="#82828A"/><stop offset=".497" stop-color="#3B3C3F"/><stop offset=".529" stop-color="#0C0C0C"/><stop offset=".614" stop-color="#3D3E3F"/><stop offset="1" stop-color="#56585A"/></linearGradient><path fill="url(#hb)" d="M8.144 6.183c-.058.03-.058.22-.14.523-.062.22-.057-.552-1.373-.552-1.455 0-2.38 1.427-2.332 3.537.048 2.113 1.102 2.305 1.783 2.314.683.01 1.188-.476 1.328-.542.14-.065.074.19.093.295.02.105.767.082.774-.066.038-.62.064-1.74.188-2.75.16-1.302.375-2.382.4-2.68.01-.105-.66-.105-.716-.076zm-.496 2.66c-.064.532-.073.735-.11 1.277-.075.21-.99 1.04-1.404 1.04H6.13c-.335-.005-.962-.015-.995-1.48-.02-.97.22-1.79.662-2.25.233-.24.51-.364.825-.364.297 0 .434.047.48.066.398.125.612.307.72.457-.058.373-.117.794-.174 1.253z"/><linearGradient id="hc" gradientUnits="userSpaceOnUse" x1="24.18" y1="6.154" x2="24.18" y2="14.81"><stop offset="0" stop-color="#82828A"/><stop offset=".333" stop-color="#3B3C3F"/><stop offset=".381" stop-color="#0C0C0C"/><stop offset=".444" stop-color="#3D3E3F"/><stop offset="1" stop-color="#56585A"/></linearGradient><path fill="url(#hc)" d="M22.46 14.794c.056-.028.4-2.97.452-3.342.03-.228.056.552 1.372.552 1.455 0 2.38-1.427 2.333-3.538-.046-2.11-1.1-2.302-1.783-2.312-.68-.01-1.184.476-1.325.542-.14.067-.076-.19-.096-.293-.018-.106-.766-.083-.772.066-.04.616-.182 2.572-.304 3.583-.16 1.304-.572 4.364-.6 4.664-.008.104.664.104.72.076zm.76-5.486c.063-.53.073-.71.16-1.27.073-.21.987-1.04 1.402-1.04h.003c.336.005.962.015.995 1.48.02.97-.22 1.788-.662 2.25-.233.24-.51.364-.824.364-.3 0-.437-.048-.48-.066-.398-.125-.61-.307-.72-.456.063-.413.07-.804.125-1.262z"/><linearGradient id="hd" gradientUnits="userSpaceOnUse" x1="29.205" y1="6.115" x2="29.205" y2="12.108"><stop offset="0" stop-color="#82828A"/><stop offset=".497" stop-color="#3B3C3F"/><stop offset=".529" stop-color="#0C0C0C"/><stop offset=".614" stop-color="#3D3E3F"/><stop offset="1" stop-color="#56585A"/></linearGradient><path fill="url(#hd)" d="M30.7 6.164c-.055.03-.066.133-.15.438-.06.222.01-.486-1.305-.486-1.457 0-2.465 1.476-2.42 3.586.05 2.112 1.233 2.397 1.915 2.406.682.01 1.148-.58 1.288-.646.14-.066.01.39.027.494s.905.073.915-.076c.037-.62.1-1.91.225-2.92.157-1.304.364-2.365.39-2.664.012-.104-.828-.16-.884-.132zm-.43 2.68c-.064.53-.075.734-.112 1.276-.074.21-.987 1.04-1.402 1.04h-.003c-.336-.005-.962-.015-.995-1.48-.02-.97.22-1.79.66-2.25.235-.24.512-.364.827-.364.298 0 .434.047.48.066.395.124.61.307.718.456-.055.376-.118.797-.172 1.256z"/><linearGradient id="he" gradientUnits="userSpaceOnUse" x1="10.814" y1="6.061" x2="10.814" y2="12.012"><stop offset="0" stop-color="#82828A"/><stop offset=".497" stop-color="#3B3C3F"/><stop offset=".529" stop-color="#0C0C0C"/><stop offset=".614" stop-color="#3D3E3F"/><stop offset="1" stop-color="#56585A"/></linearGradient><path fill="url(#he)" d="M10.672 12.012c-.787 0-1.467-.383-1.733-.596-.136-.108-.026-.248-.026-.248l.34-.427s.112-.13.268-.026c.23.153.7.402 1.21.384.33-.013.62-.13.773-.305.092-.104.128-.225.118-.37-.026-.337-.517-.685-.99-1.02-.647-.455-1.38-.972-1.35-1.795.032-1.015 1.02-1.546 1.978-1.546.536 0 1.01.185 1.43.525.125.102.03.234.03.234l-.4.433s-.13.08-.227.013c-.26-.178-.515-.29-.832-.29-.41 0-1.065.18-1.082.663-.012.325.484.676.963 1.014.616.436 1.316.93 1.375 1.698.03.395-.087.756-.34 1.05-.32.362-.83.585-1.408.61-.033.002-.066.002-.098.002z"/><linearGradient id="hf" gradientUnits="userSpaceOnUse" x1="14.108" y1="6.115" x2="14.108" y2="14.568"><stop offset="0" stop-color="#82828A"/><stop offset=".339" stop-color="#3B3C3F"/><stop offset=".365" stop-color="#0C0C0C"/><stop offset=".444" stop-color="#3D3E3F"/><stop offset="1" stop-color="#56585A"/></linearGradient><path fill="url(#hf)" d="M16.737 6.383l-.55-.193s-.14-.032-.196.122c-.21.575-.915 2.517-1.823 4.183-.02.036-.043.072-.062.11-.02-.586-.07-1.23-.177-1.8-.15-.814-.48-1.924-.692-2.57-.053-.162-.23-.115-.23-.115l-.525.194s-.137.077-.086.234c.2.608.517 1.668.653 2.423.19 1.05.192 2.383.14 2.997-.727.93-1.457 1.582-1.752 1.826-.136.112-.04.237-.04.237l.34.456s.09.16.25.026c.468-.387 1.942-1.705 2.963-3.575.963-1.766 1.69-3.77 1.893-4.343.06-.15-.102-.21-.102-.21z"/><linearGradient id="hg" gradientUnits="userSpaceOnUse" x1="33.258" y1="6.19" x2="33.258" y2="14.644"><stop offset="0" stop-color="#82828A"/><stop offset=".339" stop-color="#3B3C3F"/><stop offset=".365" stop-color="#0C0C0C"/><stop offset=".444" stop-color="#3D3E3F"/><stop offset="1" stop-color="#56585A"/></linearGradient><path fill="url(#hg)" d="M35.887 6.46l-.547-.194s-.142-.03-.198.124c-.213.574-.917 2.517-1.824 4.18-.02.04-.043.073-.063.112-.018-.587-.07-1.23-.175-1.8-.15-.815-.48-1.924-.693-2.57-.053-.162-.23-.115-.23-.115l-.524.195s-.138.077-.085.234c.2.61.515 1.668.652 2.423.19 1.046.192 2.38.14 2.992-.727.93-1.456 1.583-1.753 1.827-.137.11-.04.236-.04.236l.34.456s.09.16.252.026c.466-.39 1.94-1.706 2.962-3.577.963-1.763 1.69-3.766 1.893-4.34.052-.153-.11-.213-.11-.213z"/><path fill="#858585" d="M24.42 4.623c-1.74-1.157-3.43-1.503-5.507-1.503-1.988 0-4.033.457-5.637 1.508-.163.105 2.35.052 2.35.052.822-.028 1.532.225 1.922.82.616.93-.075 2.966-1.036 4.972-.484 1.132-.943 1.788-1.297 2.654 1.324-.817 3.024-5.003 5-4.775.29.035.73.515.982.66.102-.22-.736-2.34.23-3.48.656-.773 1.796-.28 2.99-.906z"/><path fill="#C4C4C4" d="M24.42 4.623c-1.74-1.157-3.43-1.503-5.507-1.503-1.988 0-4.033.457-5.637 1.508-.163.105 2.35.052 2.35.052.822-.028 1.532.225 1.922.82.154.23.206.533.233.887.005.06.42-.705 1.156-.39 1.293.56 2.03.692 2.073.473.063-.343.19-.672.42-.943.655-.77 1.795-.277 2.988-.904z"/><path fill="#D9D9D9" d="M20.574 5.212c-.227-.044-1.362-1.39-4.823-1.054-.045.006-.09.003-.137.003l-.162.005c1.05-.344 2.23-.527 3.465-.527 1.7 0 2.645.14 3.845.72-.104.01-1.202-.13-1.775.323-.242.19-.3.36-.41.533z"/><linearGradient id="hh" gradientUnits="userSpaceOnUse" x1="19.49" y1=".193" x2="18.332" y2="2.245"><stop offset="0" stop-color="#C4C4C4"/><stop offset="1" stop-color="#858585"/></linearGradient><ellipse fill="url(#hh)" cx="18.913" cy="1.216" rx="1.364" ry="1.216"/><path fill="#D9D9D9" d="M18.57.797c.405 0 .768.176.997.444.076.094.307.053.307-.09 0-.445-.424-.805-.945-.805-.154 0-.298.032-.425.087-.224.097-.13.367.063.367z"/></svg><svg width="21" height="19" viewBox="0 0 21 19" id="kyivstar" y="75"><g fill="#787878"><path d="M12.426 7.505L10.51 0 8.483 7.858 0 7.244l6.895 4.06c.994-2.322 2.656-3.462 5.53-3.8zm-1.236 6.82L16.98 19l-3.063-7.13-.098.002c-1.486.044-2.574.535-3.757 1.694L3.997 18.99l5.795-4.665c.048-.036.728-.544 1.4 0z"/><path d="M7.234 11.503h-.002c.938-2.235 2.525-3.324 5.3-3.636v-.004L21 7.266l-1.94 1.137-6.19.505c-2.293.2-3.67 1.06-4.918 3.065l-3.956 7.02 4.176-6.896c1.214-1.953 2.493-2.752 4.72-2.947l5.687-.464L16.6 9.843l-3.287.307c-1.97.226-3.215.923-4.44 2.486l-4.88 6.355 5.084-6.21c1.36-1.732 2.686-2.21 4.262-2.39l2.766-.257-2.35 1.377c-1.572.056-2.728.58-3.973 1.802l-5.79 5.68 3.237-7.49z"/></g></svg><svg width="15" height="14" viewBox="0 0 15 14" id="nsmep" x="37" y="75"><path fill="#646464" d="M14.08 0H.92C.414 0 0 .386 0 .86v4.39h2.134C2.896 3.17 5.01 1.67 7.5 1.67c3.132 0 5.67 2.37 5.67 5.293V7H7.5v1.733H15V.86c0-.474-.413-.86-.92-.86z"/><path fill="#969696" d="M.92 14h13.16c.507 0 .92-.385.92-.86V8.748h-2.135c-.762 2.083-2.875 3.58-5.364 3.58-3.13 0-5.67-2.368-5.67-5.29V7H7.5V5.25H0v7.89c0 .475.413.86.92.86z"/></svg><svg width="54" height="15" viewBox="0 0 54 15" id="paymaster"><linearGradient id="ka" gradientUnits="userSpaceOnUse" x1="15.662" y1="10.393" x2="0" y2="10.393"><stop offset="0" stop-color="#8F8F8F"/><stop offset="1" stop-color="#363636"/></linearGradient><path fill="url(#ka)" d="M15.652 8.946c-.076-.838-.61-1.566-1.462-2.138v.003c.297.348.49.734.542 1.16.258 2.04-2.67 4.138-6.542 4.683C4.32 13.196.974 11.98.716 9.94c-.116-.906.4-1.817 1.34-2.602v-.002c-1.36.9-2.15 2.037-2.046 3.194.21 2.297 3.882 3.807 8.2 3.372 4.32-.436 7.653-2.658 7.442-4.956z"/><path fill="#989898" d="M1.875 9.93c-.077-.597.213-1.102.54-1.395l.295-.295-.114-.325-.098-.26c-.804.67-.977 1.507-.85 2.14.045.24.145.43.306.577-.047-.206-.07-.362-.08-.44zm11.562-1.08c.074-.605-.083-1.11-.41-1.403l-.33-.258.163-.433.098-.258c.804.67 1.093 1.35.97 1.983-.05.24-.245.863-.854 1.344.247-.48.354-.907.363-.98z"/><linearGradient id="kb" gradientUnits="userSpaceOnUse" x1="6.163" y1="3.255" x2="8.151" y2="6.048"><stop offset="0" stop-color="gray"/><stop offset="1" stop-color="#1F1F1F"/></linearGradient><path fill="url(#kb)" d="M5.312 4.557c0-1.035.797-1.873 1.78-1.873.978 0 1.775.838 1.775 1.873 0 1.034-.798 1.872-1.776 1.872-.98 0-1.777-.84-1.777-1.874z"/><linearGradient id="kc" gradientUnits="userSpaceOnUse" x1="2.149" y1="6.603" x2="17.348" y2="6.603"><stop offset="0" stop-color="gray"/><stop offset="1" stop-color="#1F1F1F"/></linearGradient><path fill="url(#kc)" d="M6.614 12.303c.5-.01 1.008-.048 1.518-.117.844-.117 1.65-.318 2.38-.573.13-3.946 2.166-7.27 6.835-10.71-.004.002-.017.002-.022.005-5.265 2.208-7.23 6.583-11.11 6.49-2.145-.055-4.054-4.16-4.047-3.54.002.064-.004.143-.02.23.87 3.25 2.373 6.118 4.466 8.215z"/><linearGradient id="kd" gradientUnits="userSpaceOnUse" x1="9.1" y1="14.461" x2="10.833" y2="14.461"><stop offset="0" stop-color="gray"/><stop offset="1" stop-color="#1F1F1F"/></linearGradient><path fill="url(#kd)" d="M10.692 13.92c-.507.14-1.04.25-1.592.34.38.225.77.436 1.174.617.418.19.6.172.552-.138-.04-.26-.087-.535-.134-.82z"/><linearGradient id="ke" gradientUnits="userSpaceOnUse" x1="6.364" y1="3.224" x2="6.8" y2="3.937"><stop offset="0" stop-color="#ADADAD"/><stop offset="1" stop-color="#5C5C5C"/></linearGradient><path fill="url(#ke)" d="M8.042 3.265c-.263-.215-.594-.345-.95-.345-.86 0-1.556.734-1.556 1.637v.018c1.033-.137 1.93-.62 2.506-1.31z"/><linearGradient id="kf" gradientUnits="userSpaceOnUse" x1="18.956" y1="4.977" x2="18.956" y2="10.319"><stop offset="0" stop-color="gray"/><stop offset="1" stop-color="#1F1F1F"/></linearGradient><path fill="url(#kf)" d="M21.404 6.662c-.064.25-.164.484-.297.71-.135.226-.293.41-.478.564-.115.093-.234.182-.36.26-.127.078-.263.142-.407.2-.144.055-.293.098-.454.13-.16.027-.333.047-.523.047H18.2l-.447 1.745h-1.316l1.357-5.34h2.038c.302 0 .558.027.763.084.205.056.38.145.53.267.162.132.27.31.32.534.053.224.037.49-.04.797zm-1.36.034c.04-.152.035-.282-.008-.392-.04-.107-.106-.182-.195-.223-.11-.052-.22-.084-.333-.093-.112-.008-.265-.012-.46-.012h-.186l-.41 1.598h.094c.125 0 .242 0 .354-.004.113 0 .21-.01.296-.025.07-.01.156-.034.24-.068.088-.035.16-.074.213-.118.112-.088.196-.18.25-.275.057-.1.105-.226.147-.388z"/><linearGradient id="kg" gradientUnits="userSpaceOnUse" x1="23.263" y1="6.176" x2="23.263" y2="10.427"><stop offset="0" stop-color="gray"/><stop offset="1" stop-color="#1F1F1F"/></linearGradient><path fill="url(#kg)" d="M23.498 9.893c-.103.073-.196.137-.275.19-.084.06-.187.117-.314.177-.125.055-.247.093-.358.122-.11.028-.26.045-.45.045-.35 0-.61-.118-.78-.358-.17-.24-.21-.54-.12-.908.08-.3.2-.54.364-.726.162-.182.37-.33.618-.437.25-.108.537-.188.86-.23.32-.043.662-.075 1.023-.1l.005-.02c.058-.224.017-.376-.12-.46-.14-.087-.373-.13-.693-.13-.147 0-.323.028-.534.08-.206.056-.415.125-.623.208H22l.245-.97c.13-.04.34-.08.624-.13s.565-.073.842-.073c.682 0 1.15.114 1.402.344.25.232.316.583.198 1.06l-.698 2.74H23.39l.108-.428zm.16-.623l.21-.843c-.213.024-.386.04-.52.058-.133.015-.267.045-.405.088-.117.04-.214.1-.295.177-.08.078-.137.18-.17.31-.046.19-.03.318.05.39.085.07.223.104.418.104.108 0 .224-.023.35-.072.126-.056.247-.125.362-.212z"/><linearGradient id="kh" gradientUnits="userSpaceOnUse" x1="32.426" y1="4.977" x2="32.426" y2="10.319"><stop offset="0" stop-color="#8F8F8F"/><stop offset="1" stop-color="#363636"/></linearGradient><path fill="url(#kh)" d="M34.426 10.318h-1.31l.9-3.54-1.536 2.286h-.9l-.375-2.287-.898 3.54h-1.24l1.357-5.34h1.518l.494 2.636 1.83-2.636h1.52l-1.36 5.34z"/><linearGradient id="ki" gradientUnits="userSpaceOnUse" x1="37.301" y1="6.176" x2="37.301" y2="10.427"><stop offset="0" stop-color="#8F8F8F"/><stop offset="1" stop-color="#363636"/></linearGradient><path fill="url(#ki)" d="M37.535 9.893c-.105.073-.195.137-.275.19-.084.06-.188.117-.314.177-.125.055-.242.093-.355.122-.11.028-.26.045-.447.045-.35 0-.61-.118-.78-.358-.17-.24-.21-.54-.118-.908.078-.3.195-.54.36-.726.164-.182.37-.33.62-.437.25-.108.534-.188.856-.23.32-.043.663-.075 1.028-.1l.004-.02c.058-.224.017-.376-.12-.46-.14-.087-.373-.13-.693-.13-.15 0-.325.028-.534.08-.207.056-.416.125-.623.208h-.104l.245-.97c.133-.04.34-.08.627-.13.282-.05.563-.073.84-.073.68 0 1.15.114 1.403.344.25.232.316.583.197 1.06l-.697 2.74h-1.227l.11-.428zm.158-.623l.215-.843c-.217.024-.39.04-.523.058-.133.015-.268.045-.403.088-.12.04-.217.1-.3.177-.077.078-.134.18-.165.31-.05.19-.033.318.05.39.083.07.22.104.415.104.11 0 .225-.023.35-.072.127-.056.248-.125.36-.212z"/><linearGradient id="kj" gradientUnits="userSpaceOnUse" x1="41.376" y1="6.178" x2="41.376" y2="10.432"><stop offset="0" stop-color="#8F8F8F"/><stop offset="1" stop-color="#363636"/></linearGradient><path fill="url(#kj)" d="M40.82 10.432c-.31 0-.6-.035-.867-.098-.264-.064-.48-.144-.646-.226l.203-1.064h.11c.052.044.114.097.185.152.07.054.172.112.305.172.11.054.242.103.39.142.147.04.31.06.493.06s.355-.03.508-.084c.15-.055.24-.143.264-.26.02-.094 0-.167-.057-.21-.057-.05-.174-.095-.355-.138-.095-.024-.218-.05-.366-.08-.146-.028-.277-.058-.39-.092-.313-.1-.538-.245-.667-.437-.13-.198-.17-.448-.108-.76.033-.183.11-.35.227-.51.114-.158.27-.3.464-.423.19-.122.416-.22.68-.292.26-.07.55-.108.86-.108.294 0 .563.03.802.084.24.057.438.126.594.205l-.193 1.02h-.107c-.037-.035-.1-.08-.188-.138-.09-.054-.174-.104-.262-.142-.1-.048-.215-.088-.348-.12-.13-.03-.27-.047-.412-.047-.19 0-.36.03-.502.092-.145.064-.227.145-.248.248-.016.09.004.164.06.216.056.05.188.105.397.154.107.024.232.05.377.08.14.022.275.057.404.1.285.095.49.232.613.408.123.18.156.422.1.72-.033.192-.117.368-.242.54-.125.17-.283.318-.475.432-.21.127-.438.225-.7.295-.26.07-.558.107-.902.107z"/><linearGradient id="kk" gradientUnits="userSpaceOnUse" x1="45.004" y1="5.139" x2="45.004" y2="10.397"><stop offset="0" stop-color="#8F8F8F"/><stop offset="1" stop-color="#363636"/></linearGradient><path fill="url(#kk)" d="M44.58 10.396c-.504 0-.842-.103-1.02-.314-.174-.21-.203-.553-.082-1.032l.996-3.91h1.232l-.292 1.15h1.188l-.22.877h-1.19l-.362 1.426c-.037.143-.066.266-.09.368-.027.11-.03.203-.018.285.012.084.055.152.123.2.072.05.188.075.348.075.064 0 .156-.016.27-.045.113-.03.195-.054.244-.08h.105l-.225.89c-.143.033-.293.062-.45.082-.153.02-.34.03-.557.03z"/><linearGradient id="kl" gradientUnits="userSpaceOnUse" x1="48.303" y1="6.165" x2="48.303" y2="10.427"><stop offset="0" stop-color="#8F8F8F"/><stop offset="1" stop-color="#363636"/></linearGradient><path fill="url(#kl)" d="M48.082 10.427c-.748 0-1.275-.183-1.58-.545-.307-.362-.373-.882-.203-1.554.166-.657.486-1.184.955-1.576.473-.392 1.043-.588 1.71-.588.604 0 1.017.167 1.24.498.22.333.25.808.093 1.426l-.114.456H47.48c-.033.186-.033.344-.002.466.035.127.096.225.184.3.09.073.197.126.33.16.133.035.283.05.45.05.144 0 .288-.015.435-.05.148-.034.287-.073.412-.127.113-.044.22-.093.32-.146.096-.056.176-.1.242-.142h.13l-.263 1.037-.306.114c-.094.034-.215.068-.373.108-.14.033-.286.062-.433.082-.145.02-.323.03-.526.03zm1.078-2.643c.06-.264.055-.464-.025-.605-.08-.14-.236-.21-.473-.21-.24 0-.443.073-.615.22-.172.146-.3.343-.377.593h1.49z"/><linearGradient id="km" gradientUnits="userSpaceOnUse" x1="52.159" y1="6.276" x2="52.159" y2="10.319"><stop offset="0" stop-color="#8F8F8F"/><stop offset="1" stop-color="#363636"/></linearGradient><path fill="url(#km)" d="M53.697 7.476h-.102c-.043-.016-.107-.027-.193-.035-.088-.01-.188-.013-.293-.013-.133 0-.27.02-.424.06-.152.038-.3.082-.447.133l-.69 2.697h-1.233l1.025-4.028h1.232l-.145.577c.07-.055.165-.118.282-.2.12-.08.23-.143.324-.192.102-.054.22-.103.35-.142.127-.04.244-.057.35-.057.04 0 .084 0 .133.002.047.002.092.005.13.01l-.304 1.186z"/><linearGradient id="kn" gradientUnits="userSpaceOnUse" x1="27.413" y1="6.29" x2="27.413" y2="11.799"><stop offset="0" stop-color="gray"/><stop offset="1" stop-color="#1F1F1F"/></linearGradient><path fill="url(#kn)" d="M29.45 6.29h-.62l-1.422 2.522-.19-2.522h-1.296l.454 3.93-1 1.58H26.7L29 8.072"/><linearGradient id="ko" gradientUnits="userSpaceOnUse" x1=".446" y1=".591" x2="2.634" y2="3.669"><stop offset="0" stop-color="#8F8F8F"/><stop offset="1" stop-color="#363636"/></linearGradient><path fill="url(#ko)" d="M2.307 1.812c-.144-.867-.24-1.81-.24-1.81L.36.482s.157 1.25.306 2.067c.093.497.433 1.83.433 1.83l1.61-.61s-.23-.92-.404-1.96zM.607.657L1.875.3c.04.345.117.968.213 1.553.002.02.008.04.01.062l-.125.036c-.04-.112-.094-.192-.163-.243-.07-.05-.14-.063-.214-.042-.05.014-.09.034-.117.06-.03.024-.05.055-.067.09-.014.035-.022.073-.027.113-.005.04-.005.08-.005.123v.074l-.202.06c-.015-.065-.02-.133-.016-.203s.01-.12.018-.15l-.008-.023-.21.06c-.01.045-.012.104-.008.176.005.073.014.137.028.19l-.14.042C.748 1.7.652.997.608.657zm1.177 1.357l-.17.05c-.004-.05 0-.082.013-.1.01-.015.026-.026.045-.032.026-.008.05-.002.068.015.02.017.032.04.044.067zm-.385.228c0 .042-.005.075-.014.097-.01.02-.03.036-.054.043-.03.01-.053.004-.077-.015-.018-.017-.034-.044-.047-.076l.19-.052zm-.515.262c-.007-.032-.01-.067-.02-.1l.153-.044c.018.057.043.107.074.15.03.04.065.074.1.098.035.024.074.04.114.048.04.008.084.005.125-.006.08-.023.136-.066.164-.13.027-.063.04-.153.034-.267l-.002-.07.186-.055c.013.06.02.113.017.16 0 .05-.007.095-.02.14l.006.023.21-.06c.006-.033.006-.084 0-.147-.004-.062-.008-.12-.02-.166l.115-.03c.116.67.25 1.27.324 1.575l-1.193.454c-.102-.408-.3-1.213-.365-1.57z"/><linearGradient id="kp" gradientUnits="userSpaceOnUse" x1=".18" y1=".809" x2="2.36" y2="3.877"><stop offset="0" stop-color="#8F8F8F"/><stop offset="1" stop-color="#363636"/></linearGradient><path fill="url(#kp)" d="M2.014 2.6c-.095.09-.216.162-.358.2-.07.017-.142.027-.214.027-.093 0-.18-.02-.265-.048.183.602.41.85.623.78.303-.095.298-.46.214-.962z"/><linearGradient id="kq" gradientUnits="userSpaceOnUse" x1=".671" y1=".418" x2="2.853" y2="3.489"><stop offset="0" stop-color="#8F8F8F"/><stop offset="1" stop-color="#363636"/></linearGradient><path fill="url(#kq)" d="M.968 1.74c.098-.102.23-.184.383-.224.074-.02.147-.028.22-.028.09 0 .176.015.252.043C1.74 1.08 1.605.59 1.3.67.952.763.9 1.175.97 1.74z"/></svg><svg width="14" height="14" viewBox="0 0 14 14" id="privat" x="52" y="75"><path fill="#231F20" d="M0 13.998h5.472V8.525H0v5.473"/><path fill="#646464" d="M.007 0v6.812h1.448c3.805 0 5.736 1.932 5.736 5.74V14H14V0H.007zm11.1 2.894v8.212H9.992C9.512 7.044 6.958 4.494 2.9 4.012V2.894h8.207z"/></svg><svg width="20" height="20" viewBox="0 0 20 20" id="search" y="94"><g fill="#C3C3C3"><path d="M12.413 0c-4.186 0-7.59 3.362-7.59 7.496 0 1.263.322 2.453.883 3.498l-5 4.94c-.94.927-.94 2.44 0 3.368.94.93 2.472.93 3.413 0l5.084-5.023c.976.45 2.06.71 3.208.71C16.597 14.99 20 11.63 20 7.496 20 3.363 16.595 0 12.412 0zM3.036 18.234c-.345.34-.904.34-1.25 0-.344-.34-.344-.892 0-1.232l4.785-4.727c.38.45.814.848 1.285 1.2l-4.818 4.76zm9.377-4.754c-3.347 0-6.06-2.68-6.06-5.984 0-3.305 2.713-5.984 6.06-5.984 3.346 0 6.058 2.678 6.058 5.984s-2.71 5.984-6.056 5.984z"/><path d="M12.4 3.16v-.01c-2.42.005-4.388 1.953-4.388 4.345 0 .043.005.086.007.13 0 0-.003.003-.003.007 0 .24.197.435.44.435.244 0 .44-.194.44-.435h.008c0-.046-.007-.09-.007-.137 0-1.905 1.554-3.45 3.478-3.47.006.002.01.005.02.005.24 0 .44-.195.44-.436 0-.237-.195-.43-.438-.433z"/></g></svg><svg width="12" height="16" viewBox="0 0 12 16" id="terminal" x="20" y="94"><linearGradient id="na" gradientUnits="userSpaceOnUse" x1="6.921" y1="15.143" x2="4.23" y2="12.182" gradientTransform="matrix(-1 0 0 1 12.346 0)"><stop offset="0" stop-color="gray"/><stop offset="1" stop-color="#474747"/></linearGradient><path fill="url(#na)" d="M2.428 14.3h7.388l2.166-2.232h-6.74"/><linearGradient id="nb" gradientUnits="userSpaceOnUse" x1="4.046" y1="5.549" x2="7.744" y2="13.047" gradientTransform="matrix(-1 0 0 1 12.346 0)"><stop offset="0" stop-color="#868686"/><stop offset="1" stop-color="#535353"/></linearGradient><path fill="url(#nb)" d="M9.288 5.05l.066 8.877H3.348L3.36 5.05"/><linearGradient id="nc" gradientUnits="userSpaceOnUse" x1="2.253" y1="14.306" x2="1.075" y2="13.009" gradientTransform="matrix(-1 0 0 1 12.346 0)"><stop offset="0" stop-color="gray"/><stop offset="1" stop-color="#474747"/></linearGradient><path fill="url(#nc)" d="M9.816 14.88v-.58l2.166-2.232v.47"/><linearGradient id="nd" gradientUnits="userSpaceOnUse" x1="7.414" y1="15.898" x2="5.615" y2="13.918" gradientTransform="matrix(-1 0 0 1 12.346 0)"><stop offset="0" stop-color="gray"/><stop offset="1" stop-color="#474747"/></linearGradient><path fill="url(#nd)" d="M2.428 14.3h7.388v.58H2.428"/><linearGradient id="ne" gradientUnits="userSpaceOnUse" x1="1.149" y1="7.735" x2="1.729" y2="7.735" gradientTransform="matrix(-1 0 0 1 12.346 0)"><stop offset="0" stop-color="#C2C2C2"/><stop offset="1" stop-color="#878787"/></linearGradient><path fill="url(#ne)" d="M10.17 13.184l1.14-1.095V2.285L10.17 4.99"/><linearGradient id="nf" gradientUnits="userSpaceOnUse" x1="6.448" y1=".221" x2="3.299" y2="4.656" gradientTransform="matrix(-1 0 0 1 12.346 0)"><stop offset="0" stop-color="#868686"/><stop offset="1" stop-color="#535353"/></linearGradient><path fill="url(#nf)" d="M9.288 5.05L11.708 0H5.702l-2.34 5.05"/><linearGradient id="ng" gradientUnits="userSpaceOnUse" x1="1.693" y1="3.028" x2="2.331" y2="12.258" gradientTransform="matrix(-1 0 0 1 12.346 0)"><stop offset="0" stop-color="#868686"/><stop offset="1" stop-color="#2E2E2E"/></linearGradient><path fill="url(#ng)" d="M9.288 5.05L11.708 0l.34.54-1.878 4.45v8.194l-.816.743"/><linearGradient id="nh" gradientUnits="userSpaceOnUse" x1="2.319" y1=".944" x2="7.159" y2="3.981" gradientTransform="matrix(-1 0 0 1 12.346 0)"><stop offset="0" stop-color="#FFF"/><stop offset="1" stop-color="#C3C3C3"/></linearGradient><path fill="url(#nh)" d="M4.383 4.25h4.65L10.688.8H5.98"/><path fill="#C2C2C2" d="M4.163 4.384h4.965L10.91.666H5.887L4.163 4.384zm4.776-.27H4.602L6.077.934h4.386L8.94 4.115z"/><path fill="#545454" d="M3.875 6.893h1.5v.314h-1.5z"/><path fill="#C3C3C3" d="M3.875 7.207h1.5v.313h-1.5z"/><linearGradient id="ni" gradientUnits="userSpaceOnUse" x1="8.092" y1="14.91" x2="14.486" y2="14.91" gradientTransform="translate(-8.044)"><stop offset=".333" stop-color="#919191"/><stop offset=".757" stop-color="#F2F2F2"/><stop offset=".915" stop-color="#545454"/></linearGradient><path fill="url(#ni)" d="M6.442 14.907v-.677h-.696c-.585-.25-1.488-.41-2.5-.41s-1.916.16-2.5.41H.048v.68c0 .6 1.43 1.09 3.197 1.09 1.767 0 3.197-.49 3.197-1.09v-.004z"/><ellipse fill="#A8A8A8" cx="3.245" cy="14.23" rx="3.197" ry="1.091"/><path d="M.703 14.343c.173.05.39.07.602.062-.013-.07-.107-.143-.282-.194-.173-.05-.39-.07-.602-.06.016.072.11.142.284.194zm.607.343c.218.023.442.015.63-.02-.095-.066-.26-.12-.478-.144-.217-.024-.44-.014-.627.02.092.065.258.12.476.144zm.923.256c.228 0 .433-.032.58-.086-.147-.052-.352-.085-.58-.085-.23 0-.434.035-.58.088.147.053.353.085.58.085zm1.157.158c.216-.025.378-.08.466-.145-.188-.032-.412-.04-.628-.016-.215.024-.377.08-.466.144.19.033.413.04.628.016zm-1.556-.762c.02.08-.057.153-.196.207-.164-.045-.278-.112-.298-.19-.02-.08.057-.152.195-.207.166.044.28.114.3.19zm.52.196c.106.07.116.146.05.216-.205-.02-.384-.066-.49-.137-.105-.07-.115-.148-.05-.218.204.023.384.07.49.14zm.736.154c.16.055.24.128.24.2-.21.003-.424-.023-.588-.078-.163-.056-.242-.13-.24-.202.21-.002.425.025.587.08zm.868.075c.205.034.35.094.417.163-.197.025-.424.024-.63-.01-.206-.032-.35-.093-.418-.162.2-.025.425-.025.63.01zM3.13 13.335c.177.05.276.12.294.192-.21.01-.43-.01-.606-.06-.176-.05-.276-.12-.293-.192.21-.008.428.01.605.06zm1.092.145c.11.066.122.144.06.214-.206-.02-.386-.066-.496-.135-.108-.07-.122-.15-.06-.218.206.02.387.066.496.136zm.902.263c.042.078-.015.153-.138.213-.177-.04-.307-.104-.348-.18-.04-.08.016-.154.14-.214.175.042.306.105.346.18zm.664.363c-.035.078-.16.143-.332.186-.13-.058-.192-.133-.16-.21.035-.078.16-.145.333-.186.127.058.19.132.157.21zM3.33 13.72c.227-.008.422-.047.554-.105-.16-.047-.375-.072-.6-.065-.228.008-.423.047-.554.104.16.046.373.073.6.065zm.65.138c.218.023.442.013.626-.022-.095-.065-.264-.117-.48-.14-.22-.023-.442-.013-.627.022.094.066.262.12.48.14zm.575.222c.186.046.41.06.617.046-.033-.073-.146-.14-.333-.186-.19-.045-.41-.06-.62-.045.033.072.147.14.334.185zm.373.28c.135.063.333.103.542.112.037-.072-.007-.15-.14-.21-.135-.065-.333-.104-.542-.114-.035.073.007.15.14.213zM2.276 14.183c.118-.046.162-.097.158-.143 0-.047-.063-.103-.212-.146l.314-.13 2.48.71-.707.292-2.035-.583z" fill="#DFDFDF"/><g fill="#787878"><path d="M.96 14.41c.174.05.392.07.603.062-.013-.073-.108-.144-.28-.194-.175-.05-.392-.07-.603-.065.012.075.107.143.28.196zm.61.342c.216.023.44.015.626-.02-.093-.066-.26-.118-.476-.144-.218-.024-.44-.014-.628.02.094.067.26.12.477.144zm.92.258c.23 0 .434-.033.58-.087-.147-.053-.35-.084-.58-.084-.228 0-.432.03-.58.083.148.053.353.086.58.085zm1.16.156c.214-.026.378-.08.466-.146-.19-.033-.414-.04-.63-.015-.215.024-.377.08-.465.146.19.036.414.043.63.017zm-1.557-.76c.02.077-.057.15-.196.206-.165-.046-.277-.114-.298-.192-.02-.077.056-.15.193-.207.164.047.28.114.3.192zm.52.194c.103.07.115.148.047.217-.203-.02-.382-.067-.488-.137-.104-.07-.116-.147-.048-.217.202.02.38.068.488.138zm.734.153c.163.056.242.13.24.202-.21 0-.424-.024-.587-.08s-.243-.127-.24-.2c.21-.003.425.023.587.078zm.87.077c.206.032.35.093.418.162-.198.025-.425.024-.63-.01-.207-.032-.352-.092-.418-.16.197-.027.424-.026.63.008zM3.39 13.4c.176.05.275.12.293.193-.21.01-.43-.01-.606-.06-.177-.05-.275-.12-.294-.192.208-.005.427.014.606.06zm1.09.145c.108.068.12.146.058.216-.203-.02-.385-.064-.494-.133-.11-.07-.122-.146-.058-.217.203.02.386.065.493.135zm.903.265c.04.077-.015.153-.14.213-.175-.04-.306-.104-.348-.18-.04-.08.017-.155.14-.214.176.04.307.102.348.18zm.663.363c-.035.078-.16.144-.333.185-.128-.057-.19-.13-.157-.21.034-.078.16-.144.332-.185.128.058.19.133.158.21zm-2.458-.388c.227-.008.422-.046.554-.104-.16-.046-.374-.07-.6-.063-.228.008-.422.046-.554.104.16.05.373.074.6.066zm.652.14c.218.023.44.013.626-.022-.097-.064-.264-.117-.482-.14-.218-.023-.44-.013-.626.022.095.066.263.118.482.14zm.57.22c.188.047.41.06.62.046-.035-.07-.148-.14-.334-.184-.187-.044-.41-.058-.617-.044.03.073.144.142.33.186zm.377.283c.134.063.332.1.542.11.034-.07-.008-.147-.14-.21-.136-.064-.334-.102-.544-.113-.037.073.007.148.14.213zM2.534 14.25c.118-.048.164-.098.158-.144 0-.047-.063-.103-.212-.146l.314-.13 2.48.71-.708.292-2.032-.583z"/></g><g fill="#B3B3B3"><path d="M.824 14.375c.173.05.39.07.6.063-.012-.072-.106-.144-.28-.193-.174-.052-.39-.07-.602-.064.013.075.107.144.282.196zm.606.345c.218.022.442.014.63-.022-.094-.065-.26-.118-.477-.14-.216-.025-.44-.016-.627.02.092.064.257.116.475.14zm.924.256c.228 0 .434-.033.58-.085-.148-.05-.353-.084-.58-.084-.23 0-.434.034-.58.086.146.052.35.087.58.086zm1.156.158c.216-.025.38-.08.468-.146-.19-.032-.414-.04-.63-.015-.216.025-.377.08-.466.146.188.03.414.04.63.013zm-1.555-.762c.02.078-.057.152-.196.207-.166-.048-.28-.116-.3-.193-.02-.078.057-.152.195-.207.164.047.28.114.3.192zm.52.195c.104.07.115.147.05.217-.205-.022-.386-.068-.49-.14-.105-.067-.116-.146-.05-.215.203.02.383.067.49.136zm.735.153c.163.056.242.13.24.202-.21 0-.425-.024-.587-.08-.164-.055-.243-.127-.24-.2.21-.002.423.024.586.08zm.87.077c.204.033.35.094.417.162-.198.023-.425.022-.63-.01-.207-.034-.352-.095-.42-.164.2-.025.426-.025.632.01zM3.25 13.37c.178.048.277.117.295.19-.21.01-.43-.01-.607-.06-.177-.05-.275-.12-.294-.192.21-.008.43.01.607.06zm1.092.142c.108.07.122.146.06.216-.204-.02-.386-.066-.495-.135-.108-.07-.122-.147-.058-.217.2.02.382.067.49.136zm.904.264c.04.078-.015.154-.14.213-.174-.043-.306-.106-.348-.184-.04-.077.017-.153.14-.212.176.042.307.105.348.18zm.664.364c-.036.078-.16.143-.334.186-.127-.06-.192-.133-.157-.21.032-.078.157-.144.33-.185.127.058.19.133.16.21zm-2.46-.388c.228-.008.422-.047.555-.104-.16-.048-.374-.074-.6-.066s-.423.047-.555.104c.16.048.375.074.6.066zm.652.14c.218.023.44.013.626-.022-.096-.064-.264-.117-.482-.14-.217-.023-.443-.013-.626.022.094.064.263.118.482.14zm.572.22c.187.046.41.06.617.045-.032-.07-.144-.14-.33-.184-.188-.044-.41-.06-.617-.044.033.07.145.137.332.18zm.376.283c.133.062.33.102.54.11.038-.07-.005-.148-.14-.21-.134-.065-.33-.103-.54-.113-.037.072.006.148.14.213zM2.396 14.216c.118-.046.164-.097.158-.143 0-.047-.063-.102-.212-.147l.315-.13 2.48.71-.707.292-2.034-.582z"/></g><g><linearGradient id="nj" gradientUnits="userSpaceOnUse" x1="8.092" y1="13.648" x2="14.486" y2="13.648" gradientTransform="translate(-8.044)"><stop offset=".333" stop-color="#919191"/><stop offset=".757" stop-color="#F2F2F2"/><stop offset=".915" stop-color="#545454"/></linearGradient><path fill="url(#nj)" d="M6.442 13.646v-.676h-.696c-.585-.25-1.488-.412-2.5-.412s-1.916.16-2.5.412H.048v.68c0 .6 1.43 1.09 3.197 1.09 1.767 0 3.197-.49 3.197-1.09v-.005z"/><ellipse fill="#A8A8A8" cx="3.245" cy="12.97" rx="3.197" ry="1.091"/><path d="M.703 13.08c.173.05.39.072.602.064-.013-.072-.107-.144-.282-.194-.173-.05-.39-.07-.602-.064.016.073.11.143.284.195zm.607.345c.218.022.442.014.63-.02-.094-.067-.26-.12-.478-.144-.217-.022-.44-.013-.627.02.092.068.258.12.476.146zm.923.255c.228 0 .433-.03.58-.084-.147-.053-.352-.086-.58-.086-.23 0-.434.034-.58.086.147.052.353.086.58.085zm1.157.16c.216-.026.378-.08.466-.147-.188-.033-.412-.04-.628-.016-.215.026-.377.08-.466.146.19.034.413.042.628.016zm-1.556-.763c.02.08-.057.152-.196.206-.164-.045-.278-.112-.298-.19-.02-.08.057-.152.195-.207.166.046.28.113.3.19zm.52.195c.106.07.116.147.05.217-.205-.023-.384-.07-.49-.14-.105-.07-.115-.147-.05-.216.204.02.384.067.49.137zm.736.154c.16.055.24.128.24.2-.21.003-.424-.022-.588-.078-.163-.055-.242-.128-.24-.2.21-.003.425.023.587.078zm.868.074c.205.035.35.096.417.165-.197.024-.424.024-.63-.01-.206-.033-.35-.093-.418-.162.2-.026.425-.025.63.008zM3.13 12.074c.177.05.276.12.294.19-.21.01-.43-.01-.606-.058-.176-.05-.276-.12-.293-.192.21-.01.428.01.605.06zm1.092.144c.11.067.122.146.06.216-.206-.02-.386-.067-.496-.135-.108-.07-.122-.15-.06-.22.206.02.387.066.496.137zm.902.262c.042.08-.015.155-.138.214-.177-.04-.307-.104-.348-.18-.04-.08.016-.154.14-.214.175.043.306.106.346.18zm.664.367c-.035.076-.16.142-.332.184-.13-.056-.192-.13-.16-.21.035-.076.16-.142.333-.183.127.057.19.132.157.21zm-2.458-.39c.227-.006.422-.047.554-.104-.16-.047-.375-.073-.6-.065-.228.007-.423.047-.554.104.16.046.373.073.6.065zm.65.143c.218.02.442.01.626-.025-.095-.064-.264-.117-.48-.14-.22-.023-.442-.012-.627.022.094.065.262.12.48.142zm.575.218c.186.047.41.06.617.046-.033-.072-.146-.14-.333-.186-.19-.044-.41-.06-.62-.044.033.072.147.14.334.184zm.373.282c.135.063.333.102.542.11.037-.07-.007-.147-.14-.21-.135-.064-.333-.103-.542-.112-.035.072.007.147.14.212zM2.276 12.92c.118-.045.162-.096.158-.14 0-.05-.063-.104-.212-.148l.314-.13 2.48.708-.707.294-2.035-.583z" fill="#DFDFDF"/><g fill="#787878"><path d="M.96 13.146c.174.05.392.07.603.063-.013-.074-.108-.145-.28-.195-.175-.05-.392-.07-.603-.064.012.074.107.145.28.195zm.61.344c.216.023.44.015.626-.02-.093-.066-.26-.118-.476-.144-.218-.024-.44-.013-.628.02.094.067.26.12.477.144zm.92.258c.23 0 .434-.033.58-.087-.147-.05-.35-.082-.58-.082-.228 0-.432.033-.58.084.148.055.353.09.58.088zm1.16.157c.214-.026.378-.08.466-.146-.19-.034-.414-.04-.63-.018-.215.026-.377.08-.465.147.19.033.414.04.63.014zm-1.557-.76c.02.078-.057.152-.196.205-.165-.045-.277-.112-.298-.19-.02-.078.056-.152.193-.207.164.046.28.113.3.192zm.52.195c.103.068.115.146.047.215-.203-.02-.382-.067-.488-.137-.104-.07-.116-.147-.048-.217.202.024.38.07.488.14zm.734.152c.163.056.242.128.24.2-.21.002-.424-.023-.587-.078-.163-.056-.243-.128-.24-.2.21-.003.425.024.587.078zm.87.076c.206.033.35.093.418.162-.198.025-.425.025-.63-.01-.207-.032-.352-.092-.418-.162.197-.025.424-.024.63.01zM3.39 12.14c.176.05.275.12.293.193-.21.01-.43-.012-.606-.06-.177-.05-.275-.12-.294-.192.208-.007.427.01.606.06zm1.09.143c.108.068.12.146.058.216-.203-.02-.385-.067-.494-.136-.11-.07-.122-.147-.058-.217.203.02.386.066.493.135zm.903.265c.04.078-.015.154-.14.213-.175-.04-.306-.102-.348-.18-.04-.077.017-.152.14-.212.176.04.307.105.348.18zm.663.362c-.035.08-.16.145-.333.186-.128-.057-.19-.132-.157-.21.034-.077.16-.143.332-.184.128.057.19.13.158.21zm-2.458-.386c.227-.008.422-.048.554-.105-.16-.05-.374-.074-.6-.067-.228.008-.422.047-.554.104.16.048.373.073.6.066zm.652.14c.218.022.44.013.626-.023-.097-.062-.264-.114-.482-.14-.218-.02-.44-.01-.626.025.095.065.263.118.482.14zm.57.22c.188.047.41.06.62.046-.035-.072-.148-.14-.334-.185s-.41-.06-.617-.045c.03.072.144.14.33.185zm.377.282c.134.062.332.102.542.11.034-.07-.008-.147-.14-.21-.136-.064-.334-.103-.544-.112-.037.072.007.148.14.212zM2.534 12.987c.118-.046.164-.097.158-.14 0-.05-.063-.105-.212-.15l.314-.13 2.48.71-.708.292-2.032-.584z"/></g><g fill="#B3B3B3"><path d="M.824 13.114c.173.05.39.07.6.063-.012-.072-.106-.144-.28-.193-.174-.052-.39-.072-.602-.065.013.07.107.14.282.193zm.606.343c.218.023.442.015.63-.02-.094-.066-.26-.118-.478-.144-.216-.023-.44-.014-.627.02.093.067.258.12.476.144zm.924.257c.228 0 .434-.032.58-.085-.148-.055-.353-.087-.58-.087-.23 0-.434.033-.58.086.146.05.35.084.58.083zm1.156.158c.216-.025.38-.08.468-.146-.19-.032-.414-.04-.63-.014-.216.025-.377.08-.466.146.188.033.414.04.63.014zm-1.555-.762c.02.08-.057.152-.196.207-.166-.046-.28-.113-.3-.19-.02-.08.057-.152.195-.208.164.045.28.11.3.19zm.52.196c.104.07.115.147.05.217-.205-.02-.386-.068-.49-.138-.105-.07-.116-.147-.05-.217.203.02.383.068.49.138zm.735.154c.163.054.242.127.24.2-.21 0-.425-.024-.587-.08-.163-.054-.243-.127-.24-.2.21-.002.423.024.586.08zm.87.075c.204.033.35.094.417.162-.198.025-.425.025-.63-.01-.207-.032-.352-.092-.42-.16.2-.026.426-.026.632.008zM3.25 12.107c.178.05.277.12.295.192-.21.006-.43-.013-.607-.06-.177-.05-.275-.12-.294-.194.21-.008.43.01.607.06zm1.092.143c.108.068.122.146.06.216-.204-.02-.386-.065-.495-.135-.108-.066-.122-.145-.058-.214.2.02.382.066.49.135zm.904.266c.04.077-.015.153-.14.212-.174-.04-.306-.104-.348-.18-.04-.078.017-.155.14-.213.176.04.307.103.348.18zm.664.362c-.036.078-.16.144-.334.186-.127-.058-.192-.132-.157-.21.032-.078.157-.144.33-.185.127.056.19.13.16.207zm-2.46-.388c.228-.008.422-.046.555-.103-.16-.05-.374-.074-.6-.067-.228.008-.423.047-.555.104.16.05.375.074.6.066zm.652.14c.218.024.44.013.626-.022-.096-.064-.264-.117-.482-.14-.217-.022-.443-.013-.626.022.094.066.263.118.482.14zm.572.222c.187.045.41.06.617.045-.032-.072-.144-.14-.33-.185-.188-.045-.41-.058-.617-.045.033.072.145.14.332.185zm.376.28c.133.063.33.103.54.11.038-.07-.005-.146-.14-.21-.134-.063-.33-.1-.54-.11-.037.072.006.147.14.212zM2.396 12.954c.118-.046.164-.097.158-.142 0-.047-.063-.103-.212-.148l.315-.13 2.48.71-.707.293-2.034-.583z"/></g></g><g><linearGradient id="nk" gradientUnits="userSpaceOnUse" x1="8.092" y1="12.387" x2="14.486" y2="12.387" gradientTransform="translate(-8.044)"><stop offset=".333" stop-color="#919191"/><stop offset=".757" stop-color="#F2F2F2"/><stop offset=".915" stop-color="#545454"/></linearGradient><path fill="url(#nk)" d="M6.442 12.384v-.676h-.696c-.585-.25-1.488-.412-2.5-.412s-1.916.16-2.5.412H.048v.68c0 .602 1.43 1.09 3.197 1.09 1.767 0 3.197-.488 3.197-1.09v-.004z"/><ellipse fill="#A8A8A8" cx="3.245" cy="11.709" rx="3.197" ry="1.089"/><path d="M.703 11.82c.173.05.39.07.602.063-.013-.072-.107-.145-.282-.195-.173-.05-.39-.07-.602-.063.016.072.11.144.284.194zm.607.342c.218.023.442.015.63-.02-.094-.066-.26-.12-.478-.142-.217-.025-.44-.015-.627.02.092.065.258.12.476.142zm.923.258c.228 0 .433-.032.58-.086-.147-.053-.352-.085-.58-.085-.23 0-.434.03-.58.084.147.053.353.085.58.084zm1.157.157c.216-.025.378-.08.466-.146-.188-.03-.412-.04-.628-.013-.215.026-.377.08-.466.146.19.034.413.042.628.015zm-1.556-.762c.02.08-.057.152-.196.207-.164-.045-.278-.112-.298-.19-.02-.08.057-.152.195-.207.166.046.28.113.3.19zm.52.195c.106.07.116.148.05.218-.205-.02-.384-.068-.49-.138-.105-.07-.115-.147-.05-.216.204.02.384.067.49.137zm.736.154c.16.056.24.128.24.2-.21.003-.424-.022-.588-.077-.163-.056-.242-.13-.24-.202.21-.002.425.024.587.08zm.868.076c.205.033.35.094.417.162-.197.026-.424.025-.63-.008-.205-.033-.35-.094-.417-.163.198-.023.424-.022.63.01zM3.13 10.812c.177.05.276.12.294.19-.21.01-.43-.01-.606-.057-.176-.05-.276-.12-.293-.193.21-.008.428.01.605.06zm1.092.144c.11.068.122.146.06.216-.206-.02-.386-.066-.496-.135-.108-.07-.122-.147-.06-.216.206.02.387.067.496.137zm.902.264c.042.08-.015.154-.138.214-.177-.042-.307-.105-.348-.182-.04-.077.016-.153.14-.212.175.04.306.104.346.18zm.664.364c-.035.078-.16.143-.332.185-.13-.06-.192-.134-.16-.213.035-.076.16-.142.333-.184.127.06.19.132.157.21zm-2.458-.39c.227-.006.422-.045.554-.103-.16-.045-.375-.07-.6-.063-.228.007-.423.047-.554.104.16.05.373.074.6.066zm.65.142c.218.024.442.012.626-.022-.095-.065-.264-.118-.48-.14-.22-.024-.442-.013-.627.02.094.067.262.12.48.142zm.575.22c.186.047.41.06.617.047-.033-.073-.146-.14-.333-.185-.19-.045-.41-.058-.62-.045.033.07.147.14.334.184zm.373.284c.135.06.333.1.542.11.037-.073-.007-.148-.14-.212-.135-.064-.333-.102-.542-.112-.035.072.007.148.14.213zM2.276 11.66c.118-.047.162-.097.158-.143 0-.048-.063-.102-.212-.147l.314-.13 2.48.71-.707.292-2.035-.583z" fill="#DFDFDF"/><g fill="#787878"><path d="M.96 11.886c.174.05.392.07.603.063-.013-.074-.108-.146-.28-.196-.175-.05-.392-.07-.603-.064.012.075.107.144.28.196zm.61.344c.216.023.44.015.626-.02-.093-.066-.26-.12-.476-.144-.218-.024-.44-.015-.628.02.094.066.26.12.477.143zm.92.256c.23 0 .434-.033.58-.086-.147-.053-.35-.085-.58-.085-.228 0-.432.033-.58.085.148.053.353.086.58.086zm1.16.158c.214-.025.378-.08.466-.146-.19-.032-.414-.04-.63-.015-.215.026-.377.08-.465.146.19.03.414.04.63.013zm-1.557-.76c.02.076-.057.15-.196.205-.165-.047-.277-.115-.298-.193-.02-.078.056-.15.193-.207.164.047.28.115.3.193zm.52.193c.103.07.115.148.047.216-.203-.02-.382-.066-.488-.137-.104-.07-.116-.147-.048-.217.202.02.38.07.488.136zm.734.153c.163.056.242.13.24.2-.21.004-.424-.022-.587-.077-.163-.055-.243-.127-.24-.2.21-.004.425.024.587.077zm.87.078c.206.033.35.093.418.162-.198.025-.425.024-.63-.01-.207-.033-.352-.093-.418-.162.197-.027.424-.026.63.01zM3.39 10.88c.176.05.275.118.293.19-.21.01-.43-.01-.606-.06-.177-.05-.275-.12-.294-.19.208-.01.427.01.606.06zm1.09.142c.108.068.12.146.058.215-.203-.02-.385-.065-.494-.134-.11-.07-.122-.147-.058-.217.203.02.386.066.493.136zm.903.265c.04.077-.015.153-.14.212-.175-.04-.306-.106-.348-.183-.04-.078.017-.153.14-.213.176.042.307.105.348.182zm.663.363c-.035.078-.16.143-.333.184-.128-.057-.19-.13-.157-.21.034-.077.16-.143.332-.184.128.058.19.132.158.21zm-2.458-.387c.227-.008.422-.047.554-.104-.16-.05-.374-.075-.6-.067-.228.006-.423.046-.555.103.16.047.374.074.6.066zm.652.14c.218.022.44.012.626-.023-.097-.064-.264-.117-.482-.14-.218-.024-.44-.013-.626.022.095.065.263.12.482.14zm.57.22c.188.046.41.06.62.045-.035-.072-.148-.14-.334-.185s-.41-.058-.617-.045c.03.073.144.14.33.185zm.377.28c.134.064.332.103.542.11.034-.07-.008-.146-.14-.21-.136-.063-.334-.1-.544-.11-.037.072.007.15.14.21zM2.534 11.726c.118-.045.164-.096.158-.142 0-.048-.063-.103-.212-.147l.314-.13 2.48.71-.708.292-2.032-.585z"/></g><g fill="#B3B3B3"><path d="M.824 11.853c.173.05.39.07.6.063-.012-.073-.106-.143-.28-.194-.174-.05-.39-.07-.602-.063.013.07.107.14.282.192zm.606.343c.218.023.442.014.63-.02-.094-.067-.26-.12-.478-.144-.216-.024-.44-.014-.627.02.093.066.258.12.476.144zm.924.257c.228 0 .434-.033.58-.086-.148-.053-.353-.085-.58-.085-.23 0-.434.033-.58.086.146.052.35.085.58.085zm1.156.157c.216-.025.38-.08.468-.146-.19-.032-.414-.04-.63-.015-.216.023-.377.08-.466.144.188.034.414.04.63.016zm-1.555-.76c.02.08-.057.15-.196.206-.166-.045-.28-.113-.3-.19-.02-.08.057-.153.195-.207.164.042.28.11.3.19zm.52.194c.104.07.115.147.05.217-.205-.02-.386-.066-.49-.136-.105-.07-.116-.147-.05-.217.203.023.383.07.49.138zm.735.153c.163.056.242.13.24.2-.21.003-.425-.023-.587-.078-.163-.056-.243-.13-.24-.203.21 0 .423.026.586.08zm.87.076c.204.034.35.094.417.162-.198.026-.425.025-.63-.01-.207-.03-.352-.092-.42-.16.2-.027.426-.025.632.008zM3.25 10.846c.178.05.277.12.295.192-.21.01-.43-.01-.607-.06-.177-.05-.275-.12-.294-.193.21-.008.43.01.607.06zm1.092.142c.108.07.122.146.06.217-.204-.02-.386-.066-.495-.136-.108-.07-.122-.148-.058-.218.2.02.382.067.49.135zm.904.266c.04.078-.015.153-.14.212-.174-.04-.306-.104-.348-.18-.04-.08.017-.154.14-.213.176.04.307.104.348.18zm.664.363c-.036.078-.16.143-.334.185-.127-.058-.192-.132-.157-.21.032-.077.157-.144.33-.185.127.057.19.132.16.21zm-2.46-.387c.228-.01.422-.048.555-.105-.16-.048-.374-.073-.6-.065s-.423.046-.555.104c.16.047.375.072.6.065zm.652.14c.218.02.44.012.626-.024-.096-.064-.264-.116-.482-.14-.217-.022-.443-.012-.626.023.094.064.263.116.482.14zm.572.22c.187.046.41.06.617.046-.032-.072-.144-.14-.33-.185-.188-.043-.41-.06-.617-.043.033.072.145.14.332.184zm.376.28c.133.064.33.104.54.112.038-.07-.005-.148-.14-.21-.134-.065-.33-.103-.54-.114-.037.073.006.15.14.213zM2.396 11.693c.118-.046.164-.098.158-.143 0-.047-.063-.103-.212-.148l.315-.13 2.48.71-.707.293-2.034-.582z"/></g></g></svg><svg width="39" height="39" viewBox="0 0 39 39" id="to-top-header" x="54"><g fill-rule="evenodd" clip-rule="evenodd"><path fill="#FFF" d="M15.93 3.22c.206-.463.628-1.126 1.534-1.965C19.184-.34 21.954.04 21.954.04s2.786.212 4.13 2.13c1.34 1.93 1.107 2.857 1.12 2.85.405-.225 1.2-.514 2.66-.542 2.353-.045 4.157 2.07 4.157 2.07s1.934 2.008 1.637 4.324c-.3 2.325-1.098 2.86-1.098 2.86s.954-.134 2.745 1.398c1.778 1.528 1.696 4.3 1.696 4.3s.083 2.77-1.694 4.294c-.938.803-1.646 1.148-2.12 1.3.272.384.647 1.103.897 2.397.447 2.295-1.348 4.42-1.348 4.42s-1.666 2.23-4.018 2.334c-2.36.102-3.03-.588-3.03-.588s.294.91-.92 2.92c-1.212 2.002-3.98 2.39-3.98 2.39s-2.744.558-4.56-.923c-1.14-.93-1.584-1.652-1.756-2.066 0-.006-.397.867-2.655 1.555-2.25.69-4.57-.858-4.57-.858S6.832 35.2 6.475 32.89c-.154-1.03-.122-1.75-.032-2.244-.47.03-1.285 0-2.545-.422-2.23-.752-3.205-3.35-3.205-3.35S-.434 24.34.64 22.26c1.077-2.09 2.01-2.323 2.01-2.323s-.95-.197-2.104-2.24C-.604 15.66.42 13.085.42 13.085s.868-2.636 3.07-3.47c1.413-.54 2.27-.548 2.693-.488-.01-.002-.58-.776-.064-3.063.51-2.278 3.012-3.51 3.012-3.51S11.556 1.165 13.756 2c1.17.448 1.814.91 2.173 1.22"/><path fill="#00539E" d="M7.95 29.184c-1.164.445-2.478.45-3.758-.117-2.56-1.135-3.718-4.125-2.572-6.66.554-1.223 1.543-2.117 2.707-2.595-1.18-.4-2.188-1.23-2.802-2.477-1.226-2.497-.168-5.524 2.36-6.738 1.218-.582 2.56-.64 3.762-.268C7 9.272 6.767 7.992 7.11 6.65c.683-2.694 3.463-4.338 6.187-3.662 1.312.328 2.38 1.135 3.055 2.185.19-1.218.844-2.347 1.98-3.16 2.274-1.626 5.472-1.12 7.12 1.13.79 1.083 1.086 2.38.92 3.614.938-.814 2.172-1.264 3.568-1.163 2.803.197 4.924 2.62 4.723 5.39-.098 1.333-.715 2.512-1.645 3.352 1.248-.023 2.484.416 3.488 1.38 2.018 1.933 2.068 5.137.115 7.13-.94.96-2.182 1.466-3.437 1.522.97.77 1.633 1.896 1.775 3.273.29 2.76-1.756 5.248-4.55 5.533-1.345.136-2.626-.263-3.622-1.022.24 1.21.016 2.494-.768 3.64-1.578 2.298-4.76 2.905-7.082 1.35-1.12-.75-1.844-1.87-2.117-3.087-.603 1.08-1.61 1.92-2.955 2.297-2.7.764-5.532-.795-6.3-3.467-.37-1.285-.197-2.603.387-3.706"/><path fill="#FCB827" d="M36.592 18.585c.225 1.02.32 1.33-.023 2.375-.885 2.697-4.215 3.34-6.094 1.822-1.186-.963-2.264-2.24-3.516-2.184-.032.338-.093.67-.17.992.696.107 1.386.787 2.01 1.385.083.076.165.15.25.223-.335 0-.68.025-1.026.084-.86.146-1.4.027-1.74-.264-.17.355-.365.7-.588 1.025.86 2.404.05 8.156 4.562 7.613 1.332-.158 2.234-.736 2.87-1.787-.487.924-.616 1.22-1.56 1.803-2.428 1.508-5.398-.117-5.848-2.473-.273-1.437-.28-3.038-1.174-3.82-.215.196-.44.384-.678.558.48.52.57 1.492.658 2.354.012.113.03.223.047.33-.258-.213-.54-.41-.842-.586-.762-.44-1.096-.883-1.16-1.326-.42.195-.854.355-1.303.473-.9 2.39-5.266 6.277-1.456 8.738 1.123.725 2.19.857 3.363.46-.98.394-1.266.542-2.37.39-2.84-.39-4.06-3.523-2.872-5.615.733-1.29 1.786-2.53 1.584-3.713-.082.003-.163.003-.244.003-.153 0-.298-.002-.448-.012.027.704-.535 1.505-1.027 2.224-.064.092-.123.186-.18.28-.057-.327-.145-.66-.264-.983-.294-.82-.263-1.374-.03-1.75-.484-.128-.953-.3-1.397-.51-2.167 1.308-8.23 1.452-6.89 5.82.39 1.27 1.122 2.048 2.28 2.49-1.007-.32-1.323-.39-2.07-1.208-1.92-2.105-.817-5.28 1.45-6.13 1.448-.536 3.127-.825 3.686-1.946-.135-.115-.268-.23-.396-.348-.437.555-1.387.81-2.23 1.05-.107.026-.214.06-.318.1.17-.286.315-.597.436-.923.307-.813.685-1.218 1.11-1.36-.282-.39-.53-.807-.735-1.248-2.453-.197-7.393-4.244-9.252.06-.524 1.218-.47 2.282.128 3.356-.563-.887-.758-1.14-.8-2.24-.1-2.834 2.807-4.566 5.095-3.773 1.526.532 3.062 1.435 4.245.774-.03-.15-.05-.298-.068-.448-.69.13-1.57-.27-2.358-.62-.105-.046-.21-.087-.314-.124.314-.113.63-.256.938-.43.746-.42 1.288-.495 1.705-.35.034-.437.107-.864.213-1.277-1.825-1.517-2.93-8.122-7.255-5.953-1.196.598-1.845 1.447-2.083 2.65.143-1.035.16-1.354.846-2.225 1.76-2.235 5.114-1.714 6.35.35.858 1.426 1.46 3.165 2.906 3.31.08-.146.17-.286.26-.426-.608-.345-1.018-1.203-1.39-1.97-.05-.1-.103-.196-.16-.292.318.113.65.203 1 .266.832.15 1.298.436 1.522.806.26-.258.538-.5.833-.723-.533-2.253 3.082-8.166-1.71-9.27-1.303-.3-2.353-.063-3.317.71.782-.705 1.003-.94 2.093-1.17 2.803-.593 5.034 1.94 4.64 4.306-.275 1.652-.956 3.387.1 4.413.212-.084.422-.155.638-.22-.232-.65.01-1.56.22-2.377.025-.107.05-.218.07-.327.166.29.364.567.59.836.534.642.707 1.148.646 1.574.23-.02.46-.032.697-.032.075 0 .154.002.23.005 1.105-2.058 7.642-4.286 4.7-8.16-.802-1.06-1.76-1.542-3-1.566 1.056-.04 1.378-.08 2.362.436 2.53 1.327 2.596 4.685.756 6.25-1.263 1.07-2.876 1.956-2.794 3.37.28.084.555.187.824.3.242-.645 1.02-1.19 1.713-1.685.092-.065.182-.134.264-.203-.06.326-.088.665-.09 1.012-.006.843-.207 1.343-.54 1.626.235.162.464.34.68.528 2.298-.74 8.517 1.528 8.776-3.214.072-1.325-.346-2.305-1.283-3.11.838.64 1.11.814 1.53 1.836 1.077 2.627-1.06 5.237-3.483 5.266-1.605.018-3.346-.305-4.236.688.19.276.364.566.515.866.605-.352 1.568-.27 2.424-.21.114.01.226.01.337.01-.26.216-.504.456-.73.723-.557.645-1.04.9-1.482.9.084.306.146.615.19.933 2.233 1.122 5.43 6.4 8.622 3.03.913-.97 1.23-1.986 1.038-3.198"/><path fill="#FFF" d="M19.27 13.666c3.482 0 6.322 2.755 6.322 6.136 0 3.376-2.84 6.132-6.322 6.132-3.48 0-6.32-2.756-6.32-6.132 0-3.382 2.84-6.136 6.32-6.136"/></g></svg><svg width="14" height="14" viewBox="0 0 14 14" id="visa" x="66" y="75"><path fill-rule="evenodd" clip-rule="evenodd" fill="#969696" d="M9.778 14l.215-.006.214-.014.208-.027.207-.037.202-.045.2-.053.194-.066.19-.07.186-.085.18-.09.175-.1.17-.105.162-.118.158-.12.154-.13.144-.137.14-.145.13-.148.125-.154.117-.16.11-.17.1-.172.093-.176.084-.184.075-.187.066-.194.056-.195.047-.196.038-.203.026-.204.016-.21.005-.212-.006-.21-.018-.21-.026-.205-.036-.2-.046-.2-.056-.193-.066-.19-.075-.187-.084-.18-.093-.178-.1-.17-.11-.168-.117-.16-.124-.155-.133-.15-.14-.144-.144-.136-.153-.128-.157-.122-.164-.115-.17-.107-.177-.098-.18-.09-.186-.083-.19-.074-.195-.065-.2-.055-.2-.046-.208-.036-.208-.024-.214-.016-.215-.006-.214.005-.212.014-.21.026-.204.037-.203.046-.197.055-.194.065-.19.074-.185.083-.18.09-.174.098-.17.107-.163.115-.156.122-.15.13-.146.135-.14.142-.13.15-.124.153-.116.16-.108.168-.1.17-.093.178-.083.18-.076.187-.064.19-.056.194-.047.2-.035.2-.026.204-.017.21-.006.21.006.21.016.212.025.205.037.204.048.197.056.196.064.192.076.186.083.184.092.176.1.172.108.17.116.16.124.154.13.148.14.145.145.137.15.13.158.12.164.117.17.104.175.1.178.09.184.085.19.072.195.066.196.055.203.046.204.037.21.028.212.014.214.006"/><path fill-rule="evenodd" clip-rule="evenodd" fill="#787878" d="M4.187 14l.214-.006.215-.014.208-.027.206-.037.2-.045.2-.053.194-.066.19-.07.184-.085.18-.09.174-.1.17-.105.164-.118.158-.12.15-.13.146-.137.138-.145.13-.148.125-.154.117-.16.108-.17.1-.172.093-.176.084-.184.075-.187.065-.194.06-.195.043-.196.038-.203.027-.204.017-.21.004-.212-.004-.21-.017-.21-.026-.205-.037-.2-.044-.2-.06-.193-.065-.19-.073-.187-.082-.18-.093-.178-.1-.17-.108-.168-.116-.16-.123-.155-.13-.15-.14-.144L7 6.85l-.15-.128-.158-.122-.163-.115-.17-.107-.175-.098-.18-.09-.184-.083-.19-.074-.192-.065-.2-.055-.202-.046-.206-.036-.208-.024L4.4 5.79l-.213-.006-.215.005-.214.014-.208.026-.208.037-.2.046-.2.055-.195.065-.19.074-.186.083-.18.09-.173.098-.17.107-.164.115-.158.122-.152.13-.146.135-.14.142-.13.15-.124.153-.117.16-.11.168-.1.17-.092.178-.085.18-.075.187-.067.19-.056.194-.045.2-.037.2-.027.204-.014.21-.007.21.006.21.014.212.028.205.037.204.045.197.057.196.067.192.073.186.085.184.092.176.1.172.11.17.117.16.124.154.13.148.14.145.147.137.152.13.157.12.164.117.17.104.176.1.18.09.187.085.19.072.195.066.2.055.2.046.208.037.208.028.214.014.215.006"/><path fill-rule="evenodd" clip-rule="evenodd" fill="#969696" d="M6.493 7.36h2.22v-.224H6.686l-.192.223m-.334.496h2.554v-.224h-2.42l-.133.224m-.248.494h2.802v-.223H6.01l-.098.223m-.17.496h2.972v-.223H5.812l-.07.223m.098 2.398h2.88v-.223H5.77l.07.225m.213.495H8.72v-.222H5.95l.105.222m.298.494H8.72v-.222H6.21l.143.222m.41.498H8.72v-.226H6.566l.2.226m-1.124-3.39h3.072v-.225h-3.03l-.042.225m1.872 1.408h1.172v-.225h-1.13l-.042.225m.093-.496h1.08v-.225h-1.04l-.042.223m-2.04-.223h.304v.224h-.29l-.017-.225"/><path fill-rule="evenodd" clip-rule="evenodd" fill="#FFF" d="M4.997 9.76l-.02-.002-.02-.002-.02-.004-.017-.002-.017-.004-.02-.002-.016-.002-.02-.004-.02-.002-.023-.002H4.78l-.03-.004h-.03l-.032.004-.037.002-.04.002-.03.004-.024.004-.024.01-.02.008-.02.01-.02.01-.014.015-.012.01-.01.015-.006.014-.003.016v.018l.004.018.006.017.01.02.015.016.03.026.033.02.04.02.042.014.043.014.047.017.046.015.047.018.042.025.04.028.034.035.028.043.023.054.015.063.005.076-.005.086-.01.063-.017.057-.022.052-.03.047-.03.037-.037.035-.04.03-.043.027-.045.02-.047.02-.048.01-.05.013-.047.008-.046.005-.047.004h-.205l-.046-.003-.045-.002-.037-.002-.035-.002-.033-.003-.03-.004-.026-.006-.027-.004-.025-.008-.024-.005-.022-.007-.022-.008-.024-.008.063-.306.013.003.016.006.02.003.023.006.026.005.028.006.032.007.033.006.037.005.036.006.038.004.04.004.04.003h.122l.042-.01.032-.01.025-.015.02-.02.014-.017.01-.023.01-.02.005-.023.002-.04-.013-.036-.024-.026-.034-.023-.042-.02-.05-.02-.055-.02-.056-.02-.057-.026-.053-.03-.05-.034-.045-.045-.036-.05L4 10.027l-.014-.076.002-.086.007-.054.01-.052.015-.047.016-.04.023-.044.023-.035.03-.034.035-.032.04-.025.045-.024.05-.022.057-.014.064-.014.07-.008.075-.006.083-.002h.052l.048.002h.043l.04.002.036.004.03.002.03.004.025.002.024.004.02.002.02.004.016.002.014.003h.014l.013.006.01.002-.07.313"/><path fill="none" d="M4.997 9.76l-.02-.002-.02-.002-.02-.004-.017-.002-.017-.004-.02-.002-.016-.002-.02-.004-.02-.002-.023-.002H4.78l-.03-.004h-.03l-.032.004-.037.002-.04.002-.03.004-.024.004-.024.01-.02.008-.02.01-.02.01-.014.015-.012.01-.01.015-.006.014-.003.016v.018l.004.018.006.017.01.02.015.016.03.026.033.02.04.02.042.014.043.014.047.017.046.015.047.018.042.025.04.028.034.035.028.043.023.054.015.063.005.076-.005.086-.01.063-.017.057-.022.052-.03.047-.03.037-.037.035-.04.03-.043.027-.045.02-.047.02-.048.01-.05.013-.047.008-.046.005-.047.004h-.205l-.046-.003-.045-.002-.037-.002-.035-.002-.033-.003-.03-.004-.026-.006-.027-.004-.025-.008-.024-.005-.022-.007-.022-.008-.024-.008.063-.306.013.003.016.006.02.003.023.006.026.005.028.006.032.007.033.006.037.005.036.006.038.004.04.004.04.003h.122l.042-.01.032-.01.025-.015.02-.02.014-.017.01-.023.01-.02.005-.023.002-.04-.013-.036-.024-.026-.034-.023-.042-.02-.05-.02-.055-.02-.056-.02-.057-.026-.053-.03-.05-.034-.045-.045-.036-.05L4 10.027l-.014-.076.002-.086.007-.054.01-.052.015-.047.016-.04.023-.044.023-.035.03-.034.035-.032.04-.025.045-.024.05-.022.057-.014.064-.014.07-.008.075-.006.083-.002h.052l.048.002h.043l.04.002.036.004.03.002.03.004.025.002.024.004.02.002.02.004.016.002.014.003h.014l.013.006.01.002-.07.313"/><path fill-rule="evenodd" clip-rule="evenodd" fill="#FFF" d="M5.33 9.104h.39l-.057.335H5.9l-.053.31-.247-.005-.136.772v.03l.006.022.014.017.018.016.025.01.03.007.03.007.034.002h.033l.028-.006.026-.004.023-.003.017-.006.013-.002.007-.003.003-.002-.05.26-.01.005-.008.006-.01.004-.01.006-.01.006H5.66l-.012.006-.013.004-.014.004-.013.002-.016.004-.016.002-.018.004-.022.002-.022.004-.023.002h-.11l-.057-.004-.05-.006-.044-.008-.04-.01-.033-.013-.026-.014-.024-.02-.018-.017-.015-.018-.01-.025-.006-.022-.006-.026v-.058l.004-.034.004-.033.27-1.513"/><path fill="none" d="M5.33 9.104h.39l-.057.335H5.9l-.053.31-.247-.005-.136.772v.03l.006.022.014.017.018.016.025.01.03.007.03.007.034.002h.033l.028-.006.026-.004.023-.003.017-.006.013-.002.007-.003.003-.002-.05.26-.01.005-.008.006-.01.004-.01.006-.01.006H5.66l-.012.006-.013.004-.014.004-.013.002-.016.004-.016.002-.018.004-.022.002-.022.004-.023.002h-.11l-.057-.004-.05-.006-.044-.008-.04-.01-.033-.013-.026-.014-.024-.02-.018-.017-.015-.018-.01-.025-.006-.022-.006-.026v-.058l.004-.034.004-.033.27-1.513"/><path fill-rule="evenodd" clip-rule="evenodd" fill="#FFF" d="M6.21 10.275l-.004.022v.053l.007.025.01.027.01.026.017.025.017.026.02.02.02.02.023.02.025.018.025.014.028.012.03.01.027.006.036.005.038.004.037.006.037.002h.11l.04-.003.038-.006.038-.007.04-.008.038-.012.04-.016.04-.017.04-.02.04-.024-.056.34-.023.01-.022.013-.023.006-.02.008-.022.006-.023.008-.023.006-.023.004-.026.004-.028.004-.03.002-.032.004h-.076l-.042.002H6.56l-.07-.002-.07-.006-.07-.01-.07-.017-.07-.02-.066-.03-.064-.034-.06-.04-.055-.048-.048-.058-.042-.062-.033-.075-.024-.082-.016-.09-.004-.104.008-.113.005-.045.01-.05.01-.056.017-.058.02-.06.027-.057.032-.064.04-.057.045-.055.055-.054.062-.045.07-.042.083-.035.09-.025.102-.016.114-.006.056.002.057.006.056.008.058.015.056.02.056.026.05.034.047.04.042.045.036.057.03.062.02.074.01.08.003.095-.01.106-.02.117-.008.084h-.918l.065-.272h.508l.003-.033V9.94l-.003-.03-.006-.027-.01-.026-.01-.023-.012-.022-.015-.02-.016-.017-.02-.01-.02-.015-.02-.012-.023-.008-.022-.005-.023-.004H6.53l-.025.004-.025.007-.024.007-.023.012-.02.013-.022.013-.02.016-.016.022-.017.022-.014.02-.013.025-.013.023-.01.03-.008.027-.006.028-.057.287m3.355-.752l-.018-.01-.018-.01-.02-.01-.022-.007-.02-.01-.024-.007-.024-.01L9.4 9.45l-.027-.008-.026-.006-.03-.006-.03-.004-.033-.004-.03-.002h-.106l-.04.002-.036.006-.04.006-.04.01-.04.017-.038.02-.04.025-.038.03-.037.034-.035.045-.034.05-.03.06-.03.07-.026.08-.023.087-.007.05-.006.047-.003.05v.05l.007.046.01.042.013.043.015.04.02.04.026.034.03.033.033.03.038.026.043.022.05.017.052.012.02.004.02.005.026.004h.027l.03.002h.107l.036-.006.037-.006.035-.01.035-.01.036-.016.03-.018.03-.023.027-.025-.063.37-.008.007-.01.01-.01.01-.012.008-.017.01-.018.01-.024.01-.025.01-.033.008-.036.006-.042.006-.05.006-.055.004H8.87l-.08-.004-.063-.008-.065-.014-.065-.02-.066-.028-.06-.034-.06-.043-.055-.048-.05-.053-.05-.064-.037-.07-.035-.078-.026-.085-.016-.094-.004-.097.002-.11.015-.113.012-.058.013-.054.013-.053.016-.053.016-.047.018-.05.02-.045.02-.043.02-.043.02-.04.025-.038.025-.038.025-.035.03-.03.027-.032.03-.03.032-.025.033-.025.033-.027.035-.02.04-.02.036-.02.04-.018.04-.013.044-.014.045-.012.044-.01.048-.007.05-.008.05-.006.05-.004.053-.002.046.003.043.004.042.002.043.004.04.006.037.008.037.008.036.008.032.008.028.01.026.007.023.006.02.008.016.006.014.007.01.002-.072.382"/><path fill="none" d="M9.572 9.523l-.018-.01-.018-.01-.02-.01-.022-.007-.02-.01-.024-.007-.024-.01L9.4 9.45l-.027-.008-.026-.006-.03-.006-.03-.004-.033-.004-.03-.002h-.106l-.04.002-.036.006-.04.006-.04.01-.04.017-.038.02-.04.025-.038.03-.037.034-.035.045-.034.05-.03.06-.03.07-.026.08-.023.087-.007.05-.006.047-.003.05v.05l.007.046.01.042.013.043.015.04.02.04.026.034.03.033.033.03.038.026.043.022.05.017.052.012.02.004.02.005.026.004h.027l.03.002h.107l.036-.006.037-.006.035-.01.035-.01.036-.016.03-.018.03-.023.027-.025-.063.37-.008.007-.01.01-.01.01-.012.008-.017.01-.018.01-.024.01-.025.01-.033.008-.036.006-.042.006-.05.006-.055.004H8.87l-.08-.004-.063-.008-.065-.014-.065-.02-.066-.028-.06-.034-.06-.043-.055-.048-.05-.053-.05-.064-.037-.07-.035-.078-.026-.085-.016-.094-.004-.097.002-.11.015-.113.012-.058.013-.054.013-.053.016-.053.016-.047.018-.05.02-.045.02-.043.02-.043.02-.04.025-.038.025-.038.025-.035.03-.03.027-.032.03-.03.032-.025.033-.025.033-.027.035-.02.04-.02.036-.02.04-.018.04-.013.044-.014.045-.012.044-.01.048-.007.05-.008.05-.006.05-.004.053-.002.046.003.043.004.042.002.043.004.04.006.037.008.037.008.036.008.032.008.028.01.026.007.023.006.02.008.016.006.014.007.01.002-.072.382"/><path fill-rule="evenodd" clip-rule="evenodd" fill="#FFF" d="M13.043 10.924h-.39l.028-.154v-.014l-.02.027-.025.026-.024.02-.025.02-.024.02-.025.012-.025.013-.028.012-.027.01-.026.006-.03.008-.027.005-.028.003-.028.003-.028.003h-.03l-.072-.006-.07-.016-.06-.023-.057-.03-.05-.042-.045-.05-.04-.048-.033-.058-.028-.064-.023-.065-.014-.07-.012-.07-.004-.07.003-.072.008-.07.013-.07.022-.083.025-.077.03-.072.035-.066.036-.06.044-.057.044-.05.047-.046.05-.04.05-.033.055-.03.052-.025.056-.02.057-.01.057-.01.056-.004h.042l.04.005.036.01.034.007.032.013.028.013.03.016.024.013.022.015.02.02.02.018.017.018.015.018.012.02.01.015.01.016.1-.547h.38l-.317 1.814"/><path fill="none" d="M13.043 10.924h-.39l.028-.154v-.014l-.02.027-.025.026-.024.02-.025.02-.024.02-.025.012-.025.013-.028.012-.027.01-.026.006-.03.008-.027.005-.028.003-.028.003-.028.003h-.03l-.072-.006-.07-.016-.06-.023-.057-.03-.05-.042-.045-.05-.04-.048-.033-.058-.028-.064-.023-.065-.014-.07-.012-.07-.004-.07.003-.072.008-.07.013-.07.022-.083.025-.077.03-.072.035-.066.036-.06.044-.057.044-.05.047-.046.05-.04.05-.033.055-.03.052-.025.056-.02.057-.01.057-.01.056-.004h.042l.04.005.036.01.034.007.032.013.028.013.03.016.024.013.022.015.02.02.02.018.017.018.015.018.012.02.01.015.01.016.1-.547h.38l-.317 1.814"/><path fill-rule="evenodd" clip-rule="evenodd" fill="#969696" d="M12.404 10.588l.04-.002.036-.008.035-.01.032-.017.03-.014.027-.02.028-.025.023-.022.02-.028.02-.032.02-.033.015-.033.014-.033.012-.038.01-.04.006-.036.007-.04.002-.04v-.077l-.005-.035-.006-.035-.01-.03-.01-.034-.015-.027-.016-.03-.02-.02-.02-.02-.024-.016-.025-.012-.027-.008-.03-.002-.038.002-.034.006-.03.01-.033.017-.03.017-.027.024-.024.02-.024.028-.02.03-.02.033-.02.03-.014.038-.015.034-.01.04-.01.04-.01.04-.007.06.003.067.007.07.02.062.027.06.037.044.047.03.056.01"/><path fill-rule="evenodd" clip-rule="evenodd" fill="#FFF" d="M3.747 10.617l-.056.307h-.354l.01-.057.008-.05.005-.04.005-.02-.02.022-.022.02-.028.02-.03.02-.033.02-.034.016-.037.018-.037.01-.042.015-.04.01-.04.007-.043.005-.04.002-.04.002-.04-.004-.04-.005-.05-.014-.044-.012-.04-.016-.034-.022-.03-.023-.03-.027-.023-.025-.02-.03-.017-.028-.014-.03-.012-.03-.008-.032-.006-.03-.005-.034-.003-.03v-.03l.005-.053.01-.052.013-.05.018-.046.022-.043.026-.04.03-.04.034-.035.035-.03.04-.03.04-.026.043-.024.044-.02.047-.014.046-.013.05-.01H2.975l.01-.002H3l.018-.002.02-.002.022-.004.023-.002.024-.004.024-.002.028-.002h.022l.022-.003.02-.002h.104l.03.002h.032l.026.002h.038l.002-.01.01-.024.006-.03.003-.026-.005-.03-.013-.026-.016-.025-.024-.024-.027-.017-.03-.013-.034-.01-.037-.002-.04-.002-.043-.002H3.16l-.044.003-.047.002-.048.006-.044.005-.044.006-.043.005-.04.007-.037.006-.034.007-.03.008-.026.008-.02.01-.015.01.1-.334.03-.013.03-.01.035-.012.033-.005.034-.006.036-.005.037-.006.038-.005.04-.002h.04l.043-.004h.136l.05.003h.048l.04.002.043.008.044.01.045.013.044.016.042.02.043.023.04.025.036.032.03.033.03.038.02.043.015.044.01.045v.053l-.01.057-.142.732"/><path fill="none" d="M3.747 10.617l-.056.307h-.354l.01-.057.008-.05.005-.04.005-.02-.02.022-.022.02-.028.02-.03.02-.033.02-.034.016-.037.018-.037.01-.042.015-.04.01-.04.007-.043.005-.04.002-.04.002-.04-.004-.04-.005-.05-.014-.044-.012-.04-.016-.034-.022-.03-.023-.03-.027-.023-.025-.02-.03-.017-.028-.014-.03-.012-.03-.008-.032-.006-.03-.005-.034-.003-.03v-.03l.005-.053.01-.052.013-.05.018-.046.022-.043.026-.04.03-.04.034-.035.035-.03.04-.03.04-.026.043-.024.044-.02.047-.014.046-.013.05-.01H2.975l.01-.002H3l.018-.002.02-.002.022-.004.023-.002.024-.004.024-.002.028-.002h.022l.022-.003.02-.002h.104l.03.002h.032l.026.002h.038l.002-.01.01-.024.006-.03.003-.026-.005-.03-.013-.026-.016-.025-.024-.024-.027-.017-.03-.013-.034-.01-.037-.002-.04-.002-.043-.002H3.16l-.044.003-.047.002-.048.006-.044.005-.044.006-.043.005-.04.007-.037.006-.034.007-.03.008-.026.008-.02.01-.015.01.1-.334.03-.013.03-.01.035-.012.033-.005.034-.006.036-.005.037-.006.038-.005.04-.002h.04l.043-.004h.136l.05.003h.048l.04.002.043.008.044.01.045.013.044.016.042.02.043.023.04.025.036.032.03.033.03.038.02.043.015.044.01.045v.053l-.01.057-.142.732"/><path fill-rule="evenodd" clip-rule="evenodd" fill="#787878" d="M3.407 10.254v-.006L3.4 10.24l-.008-.004-.014-.002-.016-.004H3.28l-.025.004-.023.002-.022.004-.02.002-.02.004-.018.004-.015.004-.01.004-.01.004-.017.006-.016.005-.018.008-.018.01-.02.01-.018.013-.02.014-.018.014-.017.018-.016.016-.016.02-.01.02-.008.02-.005.022v.047l.007.037.014.028.02.02.02.014.025.01h.023l.02.005.043-.004.04-.002.037-.004.033-.01.03-.01.025-.01.025-.013.02-.015.02-.014.016-.015.014-.017.01-.018.01-.015.01-.02.007-.014.004-.016.013-.04.01-.046.008-.043.008-.035"/><path fill-rule="evenodd" clip-rule="evenodd" fill="#FFF" d="M.78 10.924H.398l.32-1.82h.667l.064 1.08.46-1.08h.696l-.327 1.82h-.384l.242-1.36h-.015l-.574 1.36h-.434l-.003-.057-.01-.15-.012-.215-.013-.248-.014-.248-.013-.217-.01-.16-.004-.067h-.02l-.235 1.36"/><path fill="none" d="M.78 10.924H.398l.32-1.82h.667l.064 1.08.46-1.08h.696l-.327 1.82h-.384l.242-1.36h-.015l-.574 1.36h-.434l-.003-.057-.01-.15-.012-.215-.013-.248-.014-.248-.013-.217-.01-.16-.004-.067h-.02l-.235 1.36"/><path fill-rule="evenodd" clip-rule="evenodd" fill="#FFF" d="M10.744 10.617l-.058.307h-.354l.003-.057v-.088l.004-.017-.02.02-.02.02-.027.02-.028.02-.03.017-.033.017-.036.018-.035.013-.037.012-.04.01-.04.008-.04.005-.04.002-.04.002-.037-.004-.038-.005-.052-.014-.045-.012-.04-.017-.034-.022-.03-.023-.03-.026-.02-.025-.022-.03-.016-.03-.013-.03-.01-.03-.008-.03-.006-.03-.004-.035-.003-.03v-.03l.002-.053.008-.053.012-.05.02-.047.02-.043.027-.04.03-.04.03-.034.038-.03.038-.03.04-.026.045-.023.043-.02.048-.014.047-.013.05-.008.013-.002.01-.002h.014l.018-.002.02-.002.022-.004.02-.002.026-.004.025-.002.023-.002h.027l.022-.003.02-.002h.1l.034.002h.03l.027.002h.043l.002-.01.005-.024.003-.03.003-.026-.006-.03-.01-.026-.02-.025-.02-.024-.026-.017-.03-.013-.03-.01-.034-.002-.04-.002-.042-.002h-.043l-.046.003-.048.002-.046.006-.045.005-.043.006-.042.005-.04.007-.038.006-.033.007-.03.008-.026.008-.02.01-.017.01.1-.334.03-.013.033-.01.034-.012.032-.005.034-.006.036-.005.036-.006.037-.005.04-.002h.04l.04-.004h.135l.048.003h.048l.04.002.043.008.042.01.044.013.044.016.045.02.042.023.04.025.035.032.032.033.03.038.02.043.015.044.01.045v.053l-.008.057-.15.732"/><path fill-rule="evenodd" clip-rule="evenodd" fill="#FFF" d="M10.686 10.934l.008-.01.058-.307-.017-.004-.058.31.01-.01v.02h.005l.002-.01-.008.01"/><path fill-rule="evenodd" clip-rule="evenodd" fill="#FFF" d="M10.323 10.924l.01.01h.353v-.02h-.354l.008.01h-.017v.01h.01l-.01-.01"/><path fill-rule="evenodd" clip-rule="evenodd" fill="#FFF" d="M10.346 10.768l-.012-.01-.006.02v.088l-.005.058h.017l.004-.057.002-.05v-.05l-.014-.01.014.01"/><path fill-rule="evenodd" clip-rule="evenodd" fill="#FFF" d="M9.798 10.945l.04.006.037.006h.04l.04-.004.042-.005.038-.006.04-.01.04-.01.034-.017.036-.015.035-.018.03-.02.03-.02.025-.018.022-.023.018-.023-.014-.01-.017.02-.02.02-.024.018-.03.02-.03.016-.032.018-.035.017-.036.013-.037.012-.04.01-.04.008-.038.006-.04.002h-.04l-.038-.002-.036-.006-.002.015"/><path fill-rule="evenodd" clip-rule="evenodd" fill="#FFF" d="M9.456 10.525l.002.032.003.03.006.032.006.03.008.033.01.03.014.032.018.03.02.03.022.024.028.026.033.022.037.02.04.02.048.014.05.01.003-.014-.05-.012-.044-.016-.04-.017-.035-.02-.03-.02-.026-.025-.023-.027-.02-.024-.014-.03-.014-.03-.013-.028-.007-.032-.006-.03-.002-.032-.002-.03v-.03h-.02m.503-.53l-.05.008-.048.012-.047.015-.045.02-.043.02-.042.027-.04.03-.035.034-.035.034-.028.04-.03.04-.02.047-.02.048-.01.048-.01.055-.004.053h.02l.002-.052.008-.05.013-.047.017-.047.02-.043.026-.04.03-.038.03-.035.037-.03.04-.03.038-.024.044-.024.042-.017.047-.016.047-.01.047-.01v-.017M10.253 9.965h-.015l-.02.002-.02.002h-.022l-.025.002-.02.002-.026.002-.025.003h-.02l-.024.003-.02.002-.018.004h-.025l-.007.003h-.002v.016h.002l.01-.003h.007l.015-.002.018-.002.02-.002.022-.003.02-.002.026-.002.025-.004h.022l.026-.005.022-.002h.055v-.02m.188.017l.01-.007h-.007l-.012-.002h-.023l-.025-.002h-.063l-.033-.002h-.035v.02h.16l.023.003H10.456l.008-.007-.008.008h.007v-.007l-.017-.002"/><path fill-rule="evenodd" clip-rule="evenodd" fill="#FFF" d="M10.457 9.89l-.003.028-.004.027-.004.026-.003.01.017.003.003-.01.005-.025.004-.03.004-.026h-.02M10.29 9.754v.002l.032.002.03.006.028.015.024.014.02.017.016.027.012.025.005.028h.018l-.005-.03-.013-.032-.02-.025-.022-.024-.027-.02-.03-.013-.033-.008-.035-.005v.018m-.605.067l.014.008.012-.006.018-.01.025-.01.03-.007.035-.006.037-.01.04-.006.04-.005.045-.007.045-.004.046-.005.046-.004h.13l.04.003v-.018h-.04l-.043-.002h-.043l-.046.002-.047.002-.045.004-.045.005-.044.006-.043.007-.04.006-.037.007-.034.01-.03.007-.028.008-.02.012-.018.007.014.01-.017-.004"/><path fill-rule="evenodd" clip-rule="evenodd" fill="#FFF" d="M9.79 9.48l-.006.006-.1.334.018.004.1-.336-.007.008-.006-.016h-.006v.006l.004-.006"/><path fill-rule="evenodd" clip-rule="evenodd" fill="#FFF" d="M10.416 9.416l-.048-.004h-.178l-.04.002-.042.002-.04.002-.037.002-.04.006-.034.006-.034.007-.033.006-.035.01-.033.01-.03.013.005.015.03-.012.033-.01.032-.01.033-.007.036-.008.034-.007.036-.004.037-.002.04-.004h.31v-.016"/><path fill-rule="evenodd" clip-rule="evenodd" fill="#FFF" d="M10.9 9.887l.007-.06v-.052l-.01-.046-.015-.05-.023-.042-.03-.04-.034-.036-.034-.03-.042-.024-.04-.026-.046-.02-.044-.017-.046-.01-.045-.01-.045-.01h-.04v.015l.04.004.04.005.045.012.044.012.044.015.043.02.044.02.038.028.036.03.03.03.03.036.02.042.014.042.01.045v.053l-.007.055.017.005m-.15.732l.148-.73-.017-.004-.148.73.017.004"/><path fill-rule="evenodd" clip-rule="evenodd" fill="#969696" d="M10.402 10.254l-.003-.008-.006-.006-.01-.006-.015-.004h-.076l-.023.002-.02.002-.022.002-.022.004-.02.004-.02.004-.018.004-.013.002-.01.002-.012.004-.014.004-.016.006-.02.007-.016.008-.02.012-.017.012-.02.01-.016.015-.016.016-.016.018-.01.02-.01.018-.01.024-.004.023v.047l.005.037.013.028.017.02.022.014.023.01h.025l.023.004.042-.004.04-.002.036-.006.034-.01.03-.01.028-.014.025-.013.024-.018.02-.017.017-.017.016-.016.012-.017.01-.018.007-.016.007-.018.005-.016.006-.04.007-.038.004-.04.002-.034"/><path fill-rule="evenodd" clip-rule="evenodd" fill="#FFF" d="M13.308 10.734l.002-.033.01-.035.02-.033.024-.028.03-.024.034-.016.037-.01.04-.005.04.003.035.012.034.016.03.025.024.03.02.032.01.037.003.034h-.04l-.002-.025-.008-.032-.015-.027-.018-.023-.023-.02-.027-.013-.03-.01-.033-.004-.032.004-.032.01-.026.013-.022.02-.02.023-.013.028-.01.03-.003.027h-.04"/><path fill-rule="evenodd" clip-rule="evenodd" fill="#FFF" d="M13.434 10.734v-.084h.078l.016.002.016.002.012.004.008.006.008.008.005.01.003.01.002.01-.002.01-.003.01-.004.008-.003.004h-.058l.005-.002.01-.002h.008l.007-.005.006-.004.002-.002.004-.006v-.015l-.004-.006-.005-.003-.004-.002-.006-.002-.007-.002h-.057v.055h-.036"/><path fill-rule="evenodd" clip-rule="evenodd" fill="#FFF" d="M13.308 10.734l-.003.008.005.04.01.038.02.032.024.03.03.022.034.018.037.012.04.004.04-.004.035-.012.034-.018.03-.023.024-.027.02-.032.01-.036.004-.04v-.01h-.043v.01l-.004.032-.008.032-.015.025-.018.023-.023.02-.027.016-.03.01-.033.002-.032-.002-.032-.01-.026-.015-.022-.02-.02-.023-.013-.025-.01-.033-.002-.033v-.008h-.04"/><path fill-rule="evenodd" clip-rule="evenodd" fill="#FFF" d="M13.434 10.734v.084h.035v-.068h.033l.042.068h.028l-.042-.068h.01l.01-.004.01-.002.006-.006.003-.004h-.138"/><path fill="none" d="M13.305 10.742l.005-.04.012-.038.02-.033.023-.027.03-.023.033-.017.037-.012.04-.002.04.004.035.013.034.016.03.023.023.03.02.032.01.037.005.042-.004.04-.01.038-.02.03-.025.03-.03.023-.033.018-.036.013-.04.004-.04-.004-.036-.012-.034-.017-.03-.023-.022-.03-.02-.03-.012-.037-.005-.04m.164.075h-.037v-.168h.078l.018.002.015.002.012.004.01.006.007.008.005.01.002.01v.022l-.004.01-.005.008-.005.008-.008.006-.008.002-.01.004h-.01l.04.068h-.028l-.042-.068h-.035v.066m.034-.084l.012-.002.01-.002.01-.002.006-.004.006-.004v-.004l.005-.006v-.016l-.005-.006-.004-.004-.003-.002-.008-.002-.008-.002h-.052v.055h.034m0 .17l.032-.003.03-.01.027-.016.023-.02.018-.023.015-.024.006-.03.003-.033-.004-.033-.008-.032-.016-.027-.018-.022-.023-.02-.025-.014-.03-.01-.033-.005-.032.004-.03.01-.027.013-.022.02-.02.023-.012.028-.01.03-.002.034.002.033.01.03.014.027.02.024.02.02.027.017.03.01.033.002"/><path fill-rule="evenodd" clip-rule="evenodd" fill="#FFF" d="M10.85 10.924h.397l.143-.79.006-.03.008-.03.008-.03.012-.03.014-.032.016-.03.02-.026.02-.026.027-.025.03-.02.03-.02.04-.02.04-.012.045-.012.05-.006.055-.004h.032l.063-.356-.04.002-.037.006-.036.006-.033.01-.03.01-.03.015-.03.015-.026.016-.026.02-.024.02-.024.02-.022.022-.022.025-.02.028-.022.025-.018.027.042-.25h-.397l-.263 1.484"/><path fill="none" d="M10.85 10.924h.397l.143-.79.006-.03.008-.03.008-.03.012-.03.014-.032.016-.03.02-.026.02-.026.027-.025.03-.02.03-.02.04-.02.04-.012.045-.012.05-.006.055-.004h.032l.063-.356-.04.002-.037.006-.036.006-.033.01-.03.01-.03.015-.03.015-.026.016-.026.02-.024.02-.024.02-.022.022-.022.025-.02.028-.022.025-.018.027.042-.25h-.397l-.263 1.484"/><path fill-rule="evenodd" clip-rule="evenodd" fill="#FFF" d="M7.117 10.924h.404l.137-.79.006-.03.007-.03.006-.027.01-.027.01-.03.015-.025.02-.026.02-.025.022-.02.026-.02.03-.02.035-.014.04-.01.044-.013.048-.006.055-.002h.01l.007.002h.017l.004.002.002-.005.005-.02.006-.022.008-.032.01-.035.01-.038.013-.04.013-.036.012-.027.014-.03.012-.024.016-.024.013-.02.01-.018.007-.01.002-.003h-.003l-.004-.003h-.007l-.01-.004h-.022l-.01-.002h-.01l-.043.003-.04.006-.035.005-.034.01-.03.01-.03.013-.027.016-.026.016-.024.018-.023.02-.022.022-.02.024-.022.023-.02.025-.02.027-.022.026.05-.25H7.38l-.263 1.484"/><path fill="none" d="M7.117 10.924h.404l.137-.79.006-.03.007-.03.006-.027.01-.027.01-.03.015-.025.02-.026.02-.025.022-.02.026-.02.03-.02.035-.014.04-.01.044-.013.048-.006.055-.002h.01l.007.002h.017l.004.002.002-.005.005-.02.006-.022.008-.032.01-.035.01-.038.013-.04.013-.036.012-.027.014-.03.012-.024.016-.024.013-.02.01-.018.007-.01.002-.003h-.003l-.004-.003h-.007l-.01-.004h-.022l-.01-.002h-.01l-.043.003-.04.006-.035.005-.034.01-.03.01-.03.013-.027.016-.026.016-.024.018-.023.02-.022.022-.02.024-.022.023-.02.025-.02.027-.022.026.05-.25H7.38l-.263 1.484"/><path fill-rule="evenodd" clip-rule="evenodd" fill="#969696" d="M13.31 12.38v-.003l.01-.037.02-.03.024-.03.03-.022.034-.016.037-.01.04-.003h.04l.035.01.034.017.03.02.024.03.02.032.01.036v.004h-.04l-.01-.028-.013-.026-.018-.023-.023-.02-.027-.015-.03-.01-.033-.002-.032.002-.032.01-.026.015-.022.02-.02.023-.013.026-.01.03h-.04"/><path fill-rule="evenodd" clip-rule="evenodd" fill="#969696" d="M13.434 12.38v-.048h.094l.016.002.012.004.008.006.008.008.005.007.003.01.002.01h-.028v-.012l-.004-.006h-.005l-.004-.003-.006-.003h-.064v.026h-.036m-.13.03l.006-.03h.04l-.002.03h-.043M13.434 12.412v-.03h.035v.026h.033l.013-.002h.01l.008-.004.007-.002.007-.005.002-.004.003-.006v-.002h.028v.01l-.004.01-.004.006-.006.006h-.133m.227-.002l-.003-.03h.04l.005.03h-.042"/><path fill-rule="evenodd" clip-rule="evenodd" fill="#969696" d="M13.305 12.412v.004l.005.04.01.038.02.033.024.03.03.023.034.016.037.01.04.005.04-.002.035-.01.034-.017.03-.022.024-.03.02-.033.01-.037.004-.04v-.005h-.042v.004l-.003.033-.008.03-.016.026-.018.023-.023.02-.027.013-.03.01-.033.002-.032-.002-.03-.01-.027-.015-.022-.02-.02-.024-.012-.026-.01-.03-.002-.034v-.004h-.043"/><path fill-rule="evenodd" clip-rule="evenodd" fill="#969696" d="M13.434 12.412v.08h.035v-.07h.033l.042.07h.028l-.042-.07h.01l.01-.002.01-.002.006-.006h-.133"/><path fill-rule="evenodd" clip-rule="evenodd" fill="#646464" d="M5.056 4.1l.7-4.034h1.12l-.7 4.033h-1.12M10.23.166C10.01.087 9.66 0 9.23 0 8.12 0 7.346.545 7.34 1.33c-.005.577.556.9.98 1.094.436.2.583.322.577.5 0 .273-.346.395-.67.395-.445 0-.683-.063-1.05-.213L7.03 3.04l-.153.9c.26.118.74.213 1.244.22 1.18 0 1.938-.54 1.948-1.38.007-.456-.294-.807-.938-1.096-.392-.184-.63-.307-.63-.495 0-.174.204-.35.64-.35.368-.008.634.07.838.154l.102.044.15-.873zM13.1.072h-.865c-.266 0-.47.072-.588.333l-1.658 3.7h1.17s.19-.5.236-.607h1.432c.033.14.134.606.134.606H14L13.1.072zM11.72 2.67c.09-.23.447-1.125.447-1.125-.012.01.09-.233.146-.384l.074.347.26 1.163h-.926zM4.122.072L3.024 2.82l-.112-.557c-.204-.646-.843-1.34-1.55-1.69l1 3.525h1.183L5.305.07H4.12v.002z"/><path fill-rule="evenodd" clip-rule="evenodd" fill="#969696" d="M2.012.066H.207l-.01.09c1.397.333 2.33 1.14 2.715 2.107L2.515.41c-.068-.254-.26-.33-.503-.343z"/></svg><svg width="15" height="15" viewBox="0 0 15 15" id="web-money" x="47" y="94"><g fill-rule="evenodd" clip-rule="evenodd" fill="#646464"><path d="M7.47 0c1.174 0 2.287.274 3.276.76.154.075.31.157.465.246l-.686.618L9.49.552 7.746 2.114 6.71.98 3.46 3.92l2.084 2.303-.82.722 2.053 2.31-.814.72 2.933 3.275 1.74-1.607 1.505 1.723c-.3.234-.625.453-.983.656-1.09.62-2.345.978-3.685.978C3.357 15 0 11.63 0 7.5S3.356 0 7.47 0z"/><path d="M6.11 7.026L7.887 5.42l1.6 1.785L7.71 8.81l-1.6-1.784m1.263 3.08L9.15 8.505l1.6 1.78-1.776 1.61-1.6-1.787M4.838 3.98l1.778-1.605 1.6 1.784-1.778 1.604-1.6-1.784M8.1 3.117l1.33-1.204 1.202 1.337L9.3 4.455 8.1 3.117m2.367 5.516L11.8 7.43 13 8.767 11.666 9.97l-1.2-1.337m1.174 2.7l1.33-1.202 1.202 1.338-1.333 1.205-1.2-1.338m.536-6.192l.888-.804.8.89-.887.803-.8-.89m-1.137-2.65l.89-.803.8.892-.89.803-.8-.892m2.272 5.297l.887-.8.8.89-.89.804-.8-.893M9.328 5.808l1.333-1.205 1.2 1.337-1.333 1.203-1.2-1.337"/></g></svg></svg>